<svg width="41" height="41" viewBox="0 0 41 41" fill="none" xmlns="http://www.w3.org/2000/svg">
<path d="M28.771 13.1787H12.2291L20.5001 20.2681L28.771 13.1787Z" fill="#F17808"/>
<path d="M20.5 21.9644C20.3252 21.9644 20.1561 21.9018 20.0235 21.7878L10.9822 14.0381V27.8215H30.0179V14.0381L20.9766 21.7878C20.8439 21.9018 20.6748 21.9644 20.5 21.9644Z" fill="#F17808"/>
<path d="M20.5 0C9.17824 0 0 9.17824 0 20.5C0 31.8218 9.17824 41 20.5 41C31.8218 41 41 31.8218 41 20.5C40.9871 9.1836 31.8164 0.0128697 20.5 0ZM31.4821 28.5536C31.4821 28.9579 31.1543 29.2857 30.75 29.2857H10.25C9.84568 29.2857 9.51786 28.9579 9.51786 28.5536V12.4464C9.51786 12.0421 9.84568 11.7143 10.25 11.7143H30.75C31.1543 11.7143 31.4821 12.0421 31.4821 12.4464V28.5536Z" fill="#F17808"/>
</svg>
