<svg width="16" height="16" viewBox="0 0 16 16" fill="none" xmlns="http://www.w3.org/2000/svg">
<path d="M11.9443 0.0898438H3.37223C1.51284 0.0898438 0 1.593 0 3.44462V12.0166C0 13.8761 1.51279 15.4022 3.37223 15.4022H11.9443C13.796 15.4022 15.3125 13.8761 15.3125 12.0166V3.44462C15.3125 1.59294 13.796 0.0898438 11.9443 0.0898438Z" fill="#FEFEFE"/>
<path fill-rule="evenodd" clip-rule="evenodd" d="M3.37186 0H11.944C13.7956 0 15.3157 1.52013 15.3157 3.37186V11.9438C15.3157 13.8033 13.7956 15.3233 11.944 15.3233H3.37186C1.51247 15.3233 0 13.8033 0 11.9438V3.37186C0 1.52013 1.51241 0 3.37186 0Z" fill="url(#paint0_linear)"/>
<path fill-rule="evenodd" clip-rule="evenodd" d="M8.39394 5.92626V5.18551C8.39394 4.8307 8.63305 4.74582 8.80298 4.74582C8.96497 4.74582 9.83685 4.74582 9.83685 4.74582V3.16406H8.40948C6.82772 3.16406 6.47276 4.33678 6.47276 5.09302V5.92626H5.55469V7.77027H6.48053C6.48053 9.86122 6.48053 12.3765 6.48053 12.3765H8.32449C8.32449 12.3765 8.32449 9.8303 8.32449 7.77027H9.69029L9.75191 7.04501L9.85995 5.92626H8.39394Z" fill="#FEFEFE"/>
<defs>
<linearGradient id="paint0_linear" x1="7.6578" y1="0.983316" x2="7.6578" y2="13.9696" gradientUnits="userSpaceOnUse">
<stop stop-color="#5A69AE"/>
<stop offset="1" stop-color="#474D98"/>
</linearGradient>
</defs>
</svg>
