<svg width="68" height="73" viewBox="0 0 68 73" fill="none" xmlns="http://www.w3.org/2000/svg">
<path fill-rule="evenodd" clip-rule="evenodd" d="M20.9054 60.7841H46.9448V68.0096H20.9054V60.7841ZM31.6388 0.000488281H34.9667C40.0278 0.000488281 45.3183 1.50134 47.9086 5.81404C48.9879 7.61095 49.7318 9.59093 49.9169 11.8483L50.0696 17.0585C50.0676 17.9524 50.0702 18.8464 50.0695 19.7403C50.0691 20.426 49.9661 20.6334 50.2307 20.9197C50.4474 21.1542 50.6882 21.337 50.906 21.5844L51.4993 22.3311C52.4941 23.8213 52.4503 24.8096 52.4503 26.5188C52.4503 28.8737 50.1688 32.3624 48.5996 34.1348C46.1398 36.9133 47.4908 35.5847 46.0523 38.4375C45.0615 40.4025 44.8017 40.5827 43.7457 42.1617C44.0466 42.2318 44.5783 42.5408 44.8616 42.6831C47.3601 43.9378 49.8992 44.9773 52.4522 46.1077C54.2204 46.8905 57.4858 48.0641 59.1217 48.8902L60.706 49.6876C63.593 51.3523 65.5393 55.7553 66.4214 58.9376C66.7942 60.2828 67.0626 61.2669 67.349 62.7017C67.6738 64.3287 67.9995 66.3436 67.9995 68.3076V70.015C67.9534 70.5913 67.7858 71.0379 67.257 71.7356C66.0687 73.3038 64.8017 72.8067 63.3163 72.9298C62.5487 72.9934 61.7321 73.0004 60.8573 73.0004H6.64446C6.11759 72.9973 5.80698 72.9285 5.35914 72.923C4.39688 72.911 3.51728 72.9453 2.62337 72.8315C1.03945 72.6298 1.50099 72.5839 0.76171 71.8648C0.22587 71.3437 0.0499521 70.7086 -0.000488281 69.9856V68.0841C-0.000488281 63.5121 1.64434 57.0615 3.89962 53.2176C5.47312 50.5357 7.16844 49.5391 9.93742 48.3873C10.1646 48.2928 10.3013 48.211 10.4992 48.1304C13.2583 47.0072 18.3664 45.0447 20.8808 43.7758L23.9557 42.2361C23.8758 41.8924 23.5497 41.5518 23.349 41.2794C22.755 40.4735 22.004 39.2495 21.6174 38.3202C20.7421 36.2157 20.9601 35.9053 19.361 34.3223C19.1061 34.07 18.8705 33.7728 18.641 33.4788C18.3819 33.1467 18.2124 32.9428 17.9739 32.5825C17.4081 31.7273 17.2819 31.5538 16.8135 30.6158C15.9991 28.985 15.4743 27.749 15.4743 25.7739C15.4743 24.0409 15.7409 22.8612 16.943 21.6577C17.1335 21.467 17.624 20.9939 17.8551 20.9321C17.8551 19.4671 17.8551 18.0022 17.8551 16.5372C17.8551 14.3699 17.8956 14.2794 18.0017 12.3636C18.3489 6.09341 22.1678 1.8827 27.9176 0.540683C29.5131 0.168272 30.5552 0.0395861 31.6388 0.000488281H31.6388ZM48.5816 50.0576L55.8417 52.9936C56.1353 53.1167 56.4284 53.2443 56.7166 53.384C58.0515 54.0308 58.6757 54.1549 59.5507 55.6117C60.1565 56.6205 60.3701 57.1457 60.8043 58.23C61.9387 61.0632 62.3341 63.3715 62.8243 66.4126C62.8888 66.8129 62.9359 67.1257 62.9717 67.5498C62.9923 67.7921 63.1177 67.761 62.7995 67.8626C62.6854 67.899 62.3623 67.9339 62.1992 67.9378C61.3681 67.9577 60.502 67.9356 59.6669 67.9351C58.7849 67.9346 58.1327 68.0096 57.2118 68.0096H52.0039V59.5922C52.0039 57.7471 51.4186 56.8016 50.0465 56.1143C49.5922 55.8867 49.2375 55.7188 48.5816 55.7188V50.0576V50.0576ZM24.4022 47.8229C24.4022 47.5373 24.917 47.4628 25.1709 47.3263C25.4657 47.1678 25.7258 47.0048 26.0155 46.831C26.5874 46.4879 27.0576 46.1758 27.6245 45.8348C28.0123 45.6015 28.0053 45.478 28.4455 45.6287C32.2069 46.9165 30.5549 46.631 34.8923 46.631C36.2711 46.631 37.2243 46.4277 38.3898 45.9614C39.6333 45.464 39.3442 45.3323 41.4707 46.5996C41.8051 46.7988 42.0909 46.9399 42.4295 47.1295L43.1559 47.5196C43.2691 47.5871 43.3654 47.5452 43.4333 47.9121C43.5202 48.3817 43.5225 55.3501 43.5225 55.7188H24.4022V47.8229V47.8229ZM15.8464 63.5402V68.0096H5.05862C5.05862 66.7587 5.32228 65.536 5.50501 64.4341C5.68908 63.3241 5.90344 62.1408 6.18983 61.0973C6.92943 58.4024 8.07328 54.71 10.7334 53.5792L19.2687 50.0576C19.2687 50.674 19.3431 50.9912 19.3431 51.6219V55.7188C17.8013 55.7188 16.5312 56.9626 16.1128 58.1458C15.8585 58.8652 15.9352 59.8596 15.9237 60.7871C15.918 61.2497 15.845 61.5661 15.8463 62.1248C15.8474 62.5966 15.8464 63.0685 15.8464 63.5402L15.8464 63.5402ZM33.1811 22.1239C36.0149 22.1239 36.896 22.1155 39.5894 23.0078C40.9084 23.4448 42.5307 24.387 43.5121 24.7415C43.8168 24.8516 44.2497 24.9969 44.6414 25.0261C45.1023 25.0606 45.5767 24.9882 46.0318 25.0493C47.2067 25.207 47.6032 24.9473 47.3716 26.3498C47.137 27.7706 45.7082 29.6718 44.7309 30.7828C44.2327 31.3492 43.1576 32.347 42.7167 33.012C42.0765 33.9774 41.5867 37.7595 38.4742 40.0868C36.8208 41.3231 35.6871 41.6402 33.4787 41.6402C31.2322 41.6402 29.0591 40.2941 27.8671 38.7669C26.5465 37.0747 26.1702 36.2748 25.4537 34.1068C24.9937 32.7147 24.8979 32.6392 23.7884 31.5283C23.3067 31.046 22.8573 30.5959 22.4463 30.0414C21.6311 28.9416 20.9186 27.8299 20.5636 26.2647C20.4724 25.8625 20.3717 25.4208 20.7048 25.2006C21.0481 24.9737 22.8643 25.0268 23.3625 25.031C24.0504 25.0368 24.0259 24.9581 24.4766 24.7311C24.7987 24.5689 25.0769 24.4182 25.4333 24.2737C26.302 23.9215 27.1663 23.4555 28.388 22.9861C29.6538 22.4997 31.47 22.1239 33.1811 22.1239L33.1811 22.1239ZM33.6275 4.99131C35.3608 4.99131 37.3392 5.10157 38.7468 5.45247C41.6722 6.18172 43.7728 7.65687 44.5803 10.7853C44.7292 11.3624 44.9409 12.5244 44.9381 13.2576L45.008 15.2733C45.0186 15.6364 45.0777 15.6185 45.0849 15.9413C44.6578 15.9413 44.5201 16.0158 44.0433 16.0158L43.8959 19.0038C43.8016 19.3078 43.9567 19.2861 42.4603 18.6436C38.2624 16.841 32.5393 16.5706 28.1959 17.7284C27.427 17.9334 26.797 18.1669 26.0667 18.4273L24.0302 19.2188L23.8814 16.0158C23.4046 16.0158 23.2668 15.9413 22.8398 15.9413C22.8398 14.7174 23.0781 12.0775 23.3454 11.0098C23.7264 9.48786 24.1673 8.54123 25.2392 7.46808C27.3696 5.33501 30.6873 4.99131 33.6276 4.99131H33.6275Z" fill="#494B68"/>
</svg>
