<svg width="80" height="53" viewBox="0 0 80 53" fill="none" xmlns="http://www.w3.org/2000/svg">
<path fill-rule="evenodd" clip-rule="evenodd" d="M40.7511 2.63628C41.1255 2.4353 41.5095 2.25729 41.8945 2.07195C42.1935 1.92797 42.5098 1.81256 42.8228 1.70196C44.5542 1.09021 46.1699 0.676706 48.0247 0.676706C49.0591 0.676706 49.9654 0.720863 50.9895 0.888104C52.132 1.07463 53.2068 1.4275 54.2837 1.83733C54.2927 1.84072 54.3003 1.84381 54.3092 1.84746L55.725 2.43304C55.7286 2.43456 55.7317 2.43575 55.7353 2.43737C55.9659 2.53587 56.1848 2.65738 56.4142 2.7545C56.4248 2.75891 56.4337 2.76295 56.444 2.76772L59.1572 4.02582C59.3855 4.11862 59.6129 4.21357 59.8417 4.30527C60.1731 4.43781 60.7452 4.61686 61.1051 4.61686C62.7239 4.61686 64.3242 4.38701 65.8611 3.87564C66.3908 3.6994 66.9581 3.42288 67.5248 3.42288C68.4689 3.42288 69.1376 3.92186 69.557 4.72691L71.6262 8.23791C72.0969 9.02047 72.5428 9.81746 73.0149 10.5992C73.1407 10.8073 73.2721 11.0105 73.3912 11.2228C73.9447 12.2098 74.5676 13.1564 75.1096 14.1505C75.9813 15.7495 76.9895 17.2753 77.8753 18.8474L79.2578 21.1981C79.576 21.7212 80 22.2841 80 22.9217C80 23.8212 79.808 24.3894 79.0225 24.9139C77.3813 26.0096 75.7921 27.1795 74.1541 28.2798C74.0188 28.3706 73.888 28.4676 73.7527 28.5584C72.6089 29.3267 71.4733 30.1125 70.3384 30.8939C69.5972 31.4042 68.8566 31.9155 68.1191 32.4313C68.0032 32.5124 67.8793 32.5966 67.7532 32.6827C67.8581 32.7843 67.9638 32.885 68.0695 32.9854C68.4257 33.324 68.8053 33.6656 69.1405 34.0231C69.1671 34.0514 69.1884 34.0768 69.2114 34.108L69.6702 34.7276C69.6852 34.7477 69.6972 34.7653 69.7106 34.7865C69.8731 35.0445 70.0211 35.3069 70.1428 35.5865C70.5152 36.4418 70.611 37.2399 70.611 38.1648C70.611 39.9586 69.5288 41.7415 68.0403 42.7232C66.7601 43.5674 65.4877 43.8366 64.0795 43.6808C63.9533 44.1205 63.7825 44.5569 63.6228 44.8517C63.4651 45.1427 63.2818 45.402 63.0832 45.6656C61.8244 47.3378 59.6563 48.1736 57.5843 47.8756C57.2539 47.8281 56.9383 47.7544 56.6288 47.648C56.2685 48.5117 55.7187 49.2984 54.972 49.8771C54.8604 49.9636 54.7594 50.0575 54.644 50.1423C53.3271 51.1115 51.598 51.4384 49.9997 51.1223C49.9708 51.1166 49.9464 51.1107 49.9182 51.1025L49.5485 50.9954C49.5131 51.0235 49.4776 51.0511 49.4417 51.0773C47.5523 52.4549 45.059 52.8996 42.7691 52.5168C42.4271 52.4596 42.1017 52.3973 41.7784 52.2973C41.5514 52.3764 41.3296 52.4488 41.088 52.5168C40.7476 52.6127 40.4043 52.6883 40.0586 52.7627C38.4689 53.1042 36.4651 53.0761 34.8876 52.6847C34.4918 52.5864 34.104 52.4698 33.7255 52.3182C33.3811 52.1804 33.0578 52.0234 32.7258 51.8599C32.7033 51.8489 32.6845 51.8387 32.663 51.8261L31.8065 51.3225C31.7926 51.3143 31.7809 51.3071 31.7674 51.2982C31.1707 50.9078 30.6474 50.4326 30.1432 49.9324C30.0189 49.8091 29.892 49.695 29.7743 49.5648C29.6687 49.5767 29.5622 49.5843 29.4474 49.5843C28.4638 49.5843 27.5606 49.4614 26.6748 49.0184C25.6393 48.5007 24.7092 47.7344 24.1417 46.7183C24.0572 46.5669 23.9722 46.4407 23.9009 46.2781C23.7415 45.9146 23.5991 45.5457 23.4992 45.1668C23.4402 45.1737 23.3802 45.1794 23.3185 45.1834C22.7414 45.2198 22.1713 45.1349 21.6126 44.9949C19.8091 44.5435 18.1979 43.1623 17.5989 41.3999C17.4865 41.0693 17.3912 40.7525 17.3234 40.4305C16.0963 40.4292 15.0593 40.088 14.0462 39.4198C12.5396 38.4261 11.4753 36.6353 11.4753 34.8216C11.4753 33.7874 11.6109 33.0791 12.0059 32.1274C12.14 31.8043 12.3031 31.5145 12.5089 31.2427L11.6227 30.5112C11.487 30.4015 11.3544 30.2881 11.2167 30.1807C11.2098 30.1753 11.204 30.1706 11.1973 30.1651L5.23278 25.2559C5.22371 25.2484 5.21607 25.242 5.20726 25.2342C5.16137 25.1937 5.11554 25.1448 5.06748 25.108C4.35884 24.5648 3.70501 23.9572 2.99989 23.4111C2.57409 23.0813 2.15316 22.7337 1.73812 22.3907C1.39269 22.1052 0.526687 21.4284 0.314452 21.0623C0.145477 20.771 0.031754 20.4563 0.00331516 20.1199C0.00104005 20.0921 0 20.0684 0 20.0404V19.8678C0 19.8395 0.00104005 19.8155 0.00341266 19.7874C0.063378 19.0839 0.459377 18.606 0.834932 18.0469C1.09195 17.6643 1.38287 17.3073 1.64217 16.9274C1.90657 16.5401 2.16974 16.1525 2.4396 15.7825L4.82995 12.4224C4.95814 12.2422 5.08519 12.0614 5.20843 11.8779C5.84576 10.9293 6.53755 10.0193 7.19431 9.08431L7.77732 8.25452C8.22526 7.59075 8.72728 6.96475 9.17248 6.29991C9.93185 5.16564 10.7823 4.09494 11.5381 2.95896C11.5423 2.95286 11.5457 2.9476 11.55 2.94161L11.9439 2.37708C11.9484 2.37053 11.9524 2.36499 11.957 2.3586C12.4491 1.68805 12.9046 1.19394 13.8393 1.19394C14.655 1.19394 15.1301 1.5512 15.8517 1.8164C16.0974 1.90668 16.3445 1.99328 16.5897 2.08469C17.3101 2.35308 18.0448 2.53907 18.7984 2.68821C19.3875 2.80481 20.018 2.90532 20.6202 2.90532C21.2827 2.90532 22.4569 2.48881 23.0878 2.26432C23.9475 1.95854 24.7909 1.60774 25.6494 1.30393C27.0774 0.798468 28.5006 0.389961 30.0009 0.153081C30.5718 0.0628969 31.1557 0 31.7345 0C34.3396 0 36.1649 0.341965 38.5456 1.39544C38.5757 1.40876 38.6008 1.42131 38.6296 1.43753L40.7511 2.63612L40.7511 2.63628ZM37.8759 43.395C37.6573 43.5886 37.4403 43.7812 37.2516 44.0235C37.0339 44.3033 36.7319 44.5833 36.469 44.8246C36.4636 44.8295 36.4589 44.8337 36.4534 44.8384L36.1157 45.135C36.0701 45.1814 36.0266 45.2296 35.982 45.277C35.9719 45.2877 35.9631 45.2966 35.9526 45.3069L35.8716 45.3859C35.8656 45.3916 35.8605 45.3964 35.8545 45.4021C35.84 45.4155 35.8255 45.4285 35.8106 45.4413C35.8088 45.4434 35.8068 45.4455 35.8047 45.4476L34.9541 46.3152C34.9457 46.3238 34.9384 46.3309 34.9297 46.3391C34.6286 46.6252 34.3383 46.9349 34.0451 47.23C33.9622 47.3134 33.8714 47.4065 33.7757 47.503C34.2913 47.877 34.9711 48.245 35.3368 48.391C35.9715 48.6445 36.5422 48.7213 37.161 48.7445C36.9312 48.2288 36.8737 47.8309 36.8737 47.1595C36.8737 46.7494 37.0003 46.24 37.1547 45.8594C37.3008 45.4992 37.4786 45.1677 37.6728 44.8317C37.7925 44.6245 37.9274 44.4061 38.0181 44.1847C38.0786 44.0372 38.1113 43.8994 38.1167 43.7435C38.0805 43.65 37.9882 43.5239 37.8758 43.395L37.8759 43.395ZM29.3672 45.3316C30.0153 45.3316 30.586 44.624 31.006 44.2075L34.6973 40.5459C35.3378 39.9106 35.7904 39.633 35.7904 38.6821C35.7904 37.6799 34.5232 36.8997 33.6263 37.3348C33.4217 37.4341 33.253 37.5252 33.0822 37.675C32.778 37.9416 32.4711 38.2632 32.1818 38.548C31.6123 39.1087 31.0456 39.6721 30.4803 40.2367C29.9203 40.7958 29.3615 41.3562 28.8065 41.9201C28.5287 42.2022 28.1932 42.5186 27.9427 42.8156C27.6286 43.2033 27.6385 43.4915 27.6385 43.9755C27.6385 44.6082 28.4162 45.3316 29.0462 45.3316H29.3672H29.3672ZM23.3486 40.9139C23.5649 40.9139 23.9158 40.7152 24.0803 40.5826C24.3878 40.3345 24.718 39.9886 25.0026 39.7109C25.5519 39.1749 26.0962 38.6335 26.6396 38.0917C27.4678 37.266 28.29 36.4338 29.1205 35.6106C29.7873 34.9496 29.9052 34.0142 29.2415 33.3061C29.1119 33.1678 28.9751 33.0638 28.8046 32.979C28.1663 32.6616 27.3999 32.8456 26.9057 33.3359L23.1945 37.0175C22.747 37.4616 22.1413 37.9487 21.7982 38.4707C21.6133 38.7522 21.5164 39.0341 21.4991 39.3708C21.4715 39.9079 21.9132 40.5284 22.3865 40.7637C22.7521 40.9455 22.943 40.9139 23.3485 40.9139H23.3486ZM20.7223 33.4606C21.2038 32.8248 21.3422 32.0529 20.7993 31.4011C20.4912 31.0313 20.0228 30.7991 19.537 30.7991C18.6336 30.7991 17.9373 31.7651 17.3564 32.3412C16.8426 32.8508 15.7619 33.6765 15.7619 34.4635C15.7619 35.0819 15.8402 35.3157 16.2771 35.7542C16.518 35.9961 16.9882 36.1778 17.3301 36.1778C18.0727 36.1778 18.4977 35.6838 18.9864 35.1954L20.7223 33.4606H20.7223ZM32.7701 22.361C32.9448 22.4181 33.2517 22.4783 33.367 22.4718C33.7748 22.4255 34.0026 22.3843 34.3692 22.2027C35.1145 21.8336 35.8162 21.1268 36.4051 20.5442L36.9609 19.9307C37.0286 19.8503 37.0967 19.7889 37.1663 19.7112C37.2394 19.6296 37.2932 19.5453 37.3763 19.4607C37.4273 19.4088 37.4501 19.3852 37.4941 19.3291C37.5009 19.3203 37.507 19.3128 37.5142 19.3043L39.9752 16.3724C39.9816 16.3649 39.9871 16.3586 39.9936 16.3512C40.2815 16.0279 40.5868 15.7119 40.8894 15.4021C41.2104 15.0733 41.5941 14.6645 41.9562 14.3856C42.4964 13.9694 42.8974 13.6378 43.4998 13.2836C44.363 12.776 45.4919 12.3777 46.5001 12.3777C47.0651 12.3777 47.5613 12.6137 47.9474 13.0001L48.8556 13.8903C48.8622 13.8968 48.8678 13.9025 48.8743 13.9091C49.8082 14.8769 50.7821 15.8253 51.7357 16.7747C53.4906 18.5218 55.2481 20.2663 57.0067 22.0098C58.842 23.8294 60.6784 25.6481 62.5175 27.4639C63.1464 28.0849 63.7754 28.7056 64.406 29.3249C64.5038 29.421 64.6023 29.5195 64.7015 29.6182C64.9791 29.4286 65.2559 29.2381 65.5349 29.0506C66.5236 28.3864 67.4764 27.6684 68.4545 27.0267L72.8273 24.0156C73.3096 23.6758 73.8014 23.3495 74.2798 23.0041C74.4431 22.8863 74.7316 22.6759 75.0368 22.4681C74.989 22.394 74.9445 22.3232 74.9087 22.2593L72.0074 17.3173C71.6128 16.6691 71.2462 16.0048 70.8528 15.3561C70.8504 15.3521 70.8484 15.3487 70.8461 15.3447L69.6788 13.3582C69.6741 13.3503 69.6702 13.3433 69.6657 13.3351C69.486 13.0087 69.2835 12.6949 69.1029 12.3814L67.3565 9.42927C67.1087 9.01906 66.871 8.605 66.6385 8.18617C66.6243 8.16059 66.6093 8.13266 66.5936 8.10331L64.6778 8.54923C64.6605 8.55317 64.6457 8.55626 64.6283 8.55936C63.6212 8.73889 62.6118 8.86975 61.5867 8.86975C60.588 8.86975 60.094 8.81433 59.1305 8.54784C58.5515 8.38764 58.0232 8.18798 57.4786 7.93833C57.1344 7.78066 56.7951 7.61613 56.4464 7.46821C56.4368 7.46408 56.4286 7.46054 56.4191 7.45612L53.3471 6.03939C52.889 5.85686 52.4279 5.68749 51.9594 5.53254C49.4624 4.70659 47.2357 4.72494 44.7394 5.54305C43.8249 5.84273 42.8615 6.29965 42.0509 6.81605C41.6407 7.07732 41.2403 7.35413 40.8573 7.65345C40.7687 7.72264 40.6731 7.78957 40.589 7.86382L39.7613 8.5949C39.7476 8.6069 39.7357 8.61684 39.7215 8.62819C39.4652 8.83095 39.1981 9.12304 38.9753 9.36292C38.7359 9.6208 38.5013 9.88468 38.2731 10.1524C38.1984 10.24 38.1188 10.3234 38.0463 10.4127C37.6049 10.9564 37.19 11.508 36.8074 12.0942C36.437 12.6619 36.0943 13.2501 35.756 13.8171L35.3756 14.4822C34.3838 16.4358 33.4876 18.1396 32.9462 20.2873C32.8223 20.7792 32.6941 21.3803 32.6941 21.887C32.6941 21.9926 32.7186 22.2275 32.7702 22.361L32.7701 22.361ZM40.0161 39.5692C40.3416 39.8413 40.639 40.1414 40.9457 40.4421C41.0495 40.544 41.1277 40.6342 41.2169 40.7483L41.5497 41.1743C41.5522 41.1775 41.5544 41.1803 41.557 41.1837C41.7944 41.4957 41.9665 41.8205 42.1097 42.1843C42.2172 42.4578 42.2967 42.7279 42.3488 42.9971C42.6561 42.2719 43.4292 41.7098 44.213 41.7098C45.0722 41.7098 45.5009 41.9762 46.0851 42.5557L48.3521 44.8044C48.7242 45.1735 49.0816 45.557 49.4552 45.9257C49.6714 46.1391 50.2146 46.6835 50.4742 46.813C51.102 47.1257 51.8509 47.0252 52.346 46.5239C52.7484 46.1164 52.9189 45.3847 52.6912 44.8524C52.6198 44.6853 52.5455 44.5527 52.4291 44.4125C52.1258 44.047 51.7466 43.7402 51.409 43.4054C51.0727 43.0719 50.7594 42.6705 50.3896 42.378C50.0403 42.1015 49.8147 41.7801 49.5072 41.4785C49.1231 41.1017 48.6618 40.7247 48.3127 40.3207L47.597 39.5844C47.5191 39.5073 47.4423 39.4192 47.3602 39.3475C46.8669 38.9165 46.4313 38.4319 45.9693 37.9698C45.7138 37.7143 45.4431 37.51 45.2272 37.2124C44.9222 36.7918 44.8182 36.3282 44.8182 35.8166C44.8182 34.2256 46.5952 33.3936 47.9522 34.0772C48.2442 34.2242 48.3546 34.3397 48.5727 34.5561L57.2794 43.1927C57.8225 43.7313 58.7035 43.8609 59.3394 43.404C60.0323 42.9059 60.2051 41.9898 59.7714 41.2638C59.6927 41.1322 59.5198 40.9504 59.4148 40.8362C59.1855 40.5866 58.9453 40.3449 58.7041 40.1065C58.2892 39.6963 57.8614 39.2986 57.4475 38.8881C56.3173 37.7671 55.1874 36.646 54.0572 35.5252L48.9605 30.4717C47.7098 29.2317 48.5936 26.9045 50.392 26.9045C51.3937 26.9045 51.7103 27.2011 52.3644 27.8499L63.2178 38.6156C63.6774 39.0714 64.0175 39.481 64.7161 39.481C65.1419 39.481 65.5299 39.3365 65.8315 39.0355C65.9053 38.962 65.9787 38.8926 66.0406 38.8086C66.0837 38.7502 66.143 38.6624 66.1741 38.5974C66.2443 38.4481 66.3245 38.2128 66.3245 38.0453C66.3245 37.3536 66.1772 37.0792 65.6935 36.6002C65.2382 36.1493 64.7837 35.6977 64.3286 35.2464L48.0786 19.1277C47.6313 18.684 47.1727 18.2489 46.7226 17.8076C46.4277 17.5185 46.1332 17.2283 45.8437 16.9339C45.8261 16.916 45.8079 16.8976 45.7892 16.8789C44.8931 17.355 43.786 18.4852 43.2738 19.0891L42.0587 20.5218C41.6532 21.0212 41.2737 21.5333 40.824 21.9962L40.446 22.4465C40.4389 22.4549 40.4328 22.462 40.4255 22.4701C40.3513 22.5528 40.2897 22.6418 40.2112 22.7254C39.864 23.0955 39.4871 23.4471 39.1621 23.8362C38.9913 24.0407 38.8182 24.1442 38.647 24.3166C37.6873 25.2827 36.2111 26.2076 34.88 26.5368C33.6843 26.8323 32.4044 26.7753 31.252 26.3348C30.1547 25.9152 29.4018 25.2389 28.89 24.1846C27.5921 21.5105 29.2825 17.1594 30.4945 14.6552C31.0301 13.5484 31.5845 12.4508 32.2163 11.3944C32.2209 11.3866 32.225 11.38 32.2298 11.3724L33.595 9.22426C33.5995 9.21723 33.6034 9.21142 33.6079 9.20459C33.9781 8.65264 34.4029 8.15018 34.8149 7.6302C34.9439 7.46747 35.0866 7.3169 35.2145 7.15457C35.4758 6.82302 35.7866 6.49847 36.0807 6.19492C36.3502 5.91688 36.6533 5.60221 36.9572 5.34169C36.9452 5.33623 36.9333 5.33082 36.9214 5.32556C34.196 4.12332 31.9102 3.96518 29.023 4.68549C27.2609 5.12497 25.5904 5.91905 23.8674 6.48796C21.7581 7.18427 20.6061 7.30978 18.4128 6.95252C17.5981 6.81989 16.8204 6.6382 16.0372 6.37816L15.3458 6.1486C15.1199 6.07361 14.8938 6.00462 14.6698 5.93008L14.4536 6.23221C14.2357 6.55701 14.0071 6.87385 13.7805 7.19269C13.6704 7.34745 13.5541 7.49782 13.4444 7.65277L6.49052 17.4708C6.48477 17.479 6.47976 17.4858 6.47382 17.4938C6.25232 17.7875 6.04619 18.0914 5.83857 18.3948C5.63349 18.6944 5.41076 18.9842 5.19407 19.2757C5.13069 19.361 5.0638 19.4501 4.99685 19.5413L7.68115 21.7366C7.68369 21.7388 7.68596 21.7406 7.68853 21.7428C8.67381 22.5652 9.69868 23.3451 10.6679 24.1856C10.777 24.28 10.8851 24.3757 10.9989 24.4645C11.0055 24.4697 11.0112 24.4742 11.0177 24.4796L13.9802 26.914C13.9896 26.9216 13.9974 26.9284 14.0065 26.9364C14.3516 27.2415 14.7114 27.5389 15.0661 27.833C15.2009 27.9448 15.348 28.0712 15.4985 28.1967C15.6248 28.0686 15.7548 27.9436 15.8961 27.8322C17.328 26.7046 19.1045 26.309 20.8929 26.7051C22.1385 26.981 23.4472 27.8049 24.2144 28.8198C24.3863 29.0473 24.5693 29.3228 24.734 29.6185C24.7601 29.6002 24.7865 29.5822 24.8131 29.5645C27.4315 27.8262 30.6878 28.3988 32.6962 30.756C33.2093 31.3582 33.6065 32.1632 33.8028 32.9806C35.2785 32.883 36.7709 33.3484 37.9223 34.2746C38.5915 34.813 39.1057 35.5024 39.4926 36.263C39.8364 36.9389 40.0769 37.8014 40.0769 38.5628C40.0769 38.8997 40.0572 39.234 40.0162 39.5685C40.0162 39.5688 40.0162 39.569 40.0161 39.5693V39.5692ZM42.3479 44.6C42.3176 44.7634 42.2784 44.9283 42.2306 45.0952C42.1164 45.4937 41.9299 45.8889 41.7438 46.2592C41.6119 46.5214 41.4729 46.7797 41.3393 47.041C41.3129 47.0927 41.2786 47.1571 41.2456 47.2235C41.5167 47.4707 42.0379 47.7993 42.2448 47.9051C42.3553 47.9616 42.5059 48.0657 42.6216 48.1048C43.5643 48.4246 44.7165 48.488 45.7248 48.2067C45.495 47.9777 45.2636 47.75 45.0322 47.5227C44.4845 46.9848 43.9289 46.4531 43.3841 45.9127C43.1024 45.6334 42.7984 45.3952 42.5761 45.0606C42.4771 44.9116 42.4028 44.7581 42.3479 44.6H42.3479Z" fill="#494B68"/>
</svg>
