<svg width="62" height="62" viewBox="0 0 62 62" fill="none" xmlns="http://www.w3.org/2000/svg">
<path fill-rule="evenodd" clip-rule="evenodd" d="M42.7889 30.1791C42.9545 30.3406 43.1151 30.5049 43.2734 30.6589C43.8475 31.217 44.418 31.7789 44.9879 32.3412C45.8328 33.1747 46.6719 34.014 47.518 34.8464L57.6258 44.7916C58.7508 45.8983 59.8599 46.8377 60.5379 48.3027C62.2162 51.9287 61.2316 56.0749 57.934 58.4434C55.0745 60.4972 51.3542 60.5361 48.4186 58.6059C47.7481 58.1649 47.2222 57.6451 46.6567 57.0886L39.0766 49.6289C38.2338 48.7995 37.3851 47.9757 36.5411 47.1473C35.9693 46.5858 35.3978 46.0239 34.8297 45.4589C34.4226 45.0542 33.9325 44.625 33.6246 44.1442C33.552 44.0307 33.4876 43.9133 33.4318 43.7927C32.9523 44.0281 32.5843 44.4052 32.3706 44.9173C32.28 45.1342 32.2286 45.3653 32.1826 45.5946C32.0609 46.2011 32.0534 46.6813 31.8254 47.2918C31.3674 48.5189 30.6959 49.1256 29.7946 50.0139C26.6827 53.0805 23.593 56.1691 20.4522 59.2072C19.6741 59.9598 19.0699 60.5323 18.0904 61.0496C16.9036 61.6762 15.607 62 14.2598 62C11.6242 62 9.93221 61.0594 8.10123 59.2784C6.82208 58.0343 5.51688 56.9127 4.7333 55.2689C3.97028 53.6679 3.79181 51.8005 4.1928 50.0803C4.54234 48.581 5.31138 47.2885 6.40221 46.1946C9.72925 42.8585 13.1385 39.6033 16.4788 36.2802C18.1011 34.6664 18.655 34.5801 20.8382 34.2273C21.1975 34.1692 21.7268 33.9037 21.9891 33.656C22.2548 33.4052 22.4103 33.21 22.5098 33.0028C21.9411 32.7459 21.4978 32.3332 21.0335 31.8891C20.6085 31.4826 20.1941 31.0652 19.7793 30.6486C19.3059 30.1731 18.8288 29.6215 18.3113 29.1941C17.9971 29.2095 17.4154 29.3541 17.1524 29.3994C15.9234 29.6115 14.7354 29.6693 13.4936 29.5298C11.8606 29.3464 10.3803 28.9501 8.88433 28.2791C6.41406 27.1711 3.87038 25.1234 2.44306 22.8383C1.66046 21.5855 1.07896 20.3954 0.631141 18.9892C0.10941 17.3509 -0.0959878 15.4128 0.0416243 13.7018C0.162144 12.2018 1.45251 11.0558 2.98123 11.0909C3.94189 11.1129 4.94839 11.7474 5.77815 12.1886C6.82015 12.7427 7.85749 13.3052 8.89439 13.8684C10.1698 14.5609 11.4364 15.2696 12.716 15.9547L14.3736 14.9621L14.3321 13.0456C13.9703 12.854 13.6065 12.6659 13.246 12.4718C12.3945 12.0135 11.5396 11.5612 10.6897 11.1L6.2255 8.67775C6.1431 8.63313 6.05764 8.59301 6.00064 8.56392C5.28262 8.2279 4.77139 7.78066 4.41635 7.07103C3.94163 6.12217 4.03059 5.03667 4.6536 4.17495C5.22872 3.3795 6.71282 2.39323 7.5952 1.90913C8.53371 1.39415 9.51569 0.971846 10.543 0.660853C13.0247 -0.0903788 15.4473 -0.177738 17.9953 0.280217C24.457 1.4416 29.6873 7.28502 29.9727 13.7544C30.0023 14.4248 30.0563 15.0583 29.9944 15.732C29.9641 16.06 29.9047 16.389 29.857 16.7152C29.8305 16.8969 29.7834 17.1858 29.7857 17.3943C29.802 17.411 29.8188 17.4272 29.8324 17.4404L35.8259 23.3384C35.9888 23.4987 36.1537 23.6525 36.3153 23.8094C36.3306 23.7947 36.3461 23.78 36.3614 23.7654C38.5712 21.6577 40.7552 19.5243 42.9705 17.4222C44.0728 16.3761 45.1706 15.3251 46.2611 14.267C46.4378 14.0956 46.7068 13.8821 46.8879 13.6869C47.1587 12.3098 47.6467 11.1382 48.7382 10.1553C49.3506 9.60391 49.9977 9.09385 50.6386 8.57543C51.2513 8.07997 51.8709 7.59282 52.495 7.1112C53.9026 6.02487 55.4052 4.63308 57.3619 4.92969C58.6055 5.11832 59.3092 5.8083 60.1624 6.62825C60.965 7.3996 61.6008 7.98128 61.8891 9.1068C62.1734 10.2171 61.8928 11.3262 61.2566 12.2656C60.7904 12.9542 60.2636 13.5945 59.752 14.2499C58.7785 15.497 57.7581 16.7083 56.711 17.896C55.6152 19.139 54.5946 19.3944 53.0965 19.7517C52.8945 19.9227 52.6553 20.2184 52.4843 20.3924C51.4157 21.4786 50.3397 22.5579 49.2672 23.6403L42.7889 30.1792L42.7889 30.1791ZM58.017 10.0212C57.8775 9.84501 57.5107 9.52265 57.3976 9.41395C57.2754 9.29651 56.9717 8.98081 56.7748 8.8251C56.3265 9.05993 55.2077 9.96647 54.9374 10.1751C54.3368 10.6386 53.7412 11.1068 53.1516 11.5837C52.5655 12.0578 51.9697 12.5238 51.4097 13.0279C50.9542 13.4381 50.8338 14.0608 50.7349 14.6344C50.5472 15.7245 49.7809 16.3207 49.0394 17.04C47.9384 18.1082 46.8304 19.169 45.7174 20.2252C43.5047 22.325 41.3229 24.4562 39.1156 26.5614C38.0167 27.6096 36.9172 28.6572 35.8258 29.7128C35.2753 30.2452 34.731 30.7838 34.1795 31.3155C33.8072 31.6745 33.4336 32.033 33.0541 32.3847C32.7833 32.6354 32.4077 33.0164 32.0522 33.1256C31.7262 33.2257 31.4031 33.1776 31.1217 32.9872C30.7373 32.7268 30.24 32.1564 29.8999 31.8165C29.6936 31.6103 29.3404 31.2403 29.0981 31.0879C28.2802 30.5736 27.1076 30.9196 26.7915 31.835C26.7251 32.0269 26.6975 32.2702 26.6703 32.4712C26.6196 32.8454 26.5683 33.2108 26.4771 33.5786C26.1922 34.7288 25.5939 35.6492 24.7288 36.4659C23.8901 37.2577 22.6289 37.8842 21.4795 38.0699C20.1571 38.2834 20.2486 38.0674 19.2923 39.0188C15.9556 42.338 12.5499 45.5898 9.22665 48.9221C8.64993 49.5004 8.23549 50.1548 8.04992 50.951C7.84678 51.8224 7.92852 52.8026 8.31599 53.6152C8.80787 54.6473 10.0582 55.7067 10.8831 56.5091C11.9405 57.5376 12.7 58.1061 14.2598 58.1061C14.9555 58.1061 15.6068 57.9418 16.2192 57.6184C16.8383 57.2916 17.1847 56.9076 17.678 56.4304C20.8098 53.4007 23.8912 50.3204 26.9944 47.2624C27.3779 46.8845 27.9195 46.4621 28.1107 45.9496C28.2204 45.6557 28.2347 45.1661 28.3002 44.8403C28.3983 44.3515 28.5172 43.8998 28.7102 43.4376C29.4294 41.7152 30.8586 40.4615 32.666 39.9153C33.2498 39.739 33.6785 39.7226 34.2594 39.6482C34.5102 39.6161 34.6763 39.5524 34.8938 39.4218C35.8184 38.8666 35.8667 37.7271 35.1452 36.9904L33.5844 35.4358C33.3067 35.1593 33.2076 34.7865 33.3122 34.4116C33.4155 34.0415 33.8043 33.6727 34.0688 33.3955C34.4245 33.0227 34.7875 32.6558 35.1508 32.2902C35.6861 31.7516 36.2303 31.2207 36.7645 30.6815L46.4338 20.9221C47.5029 19.8429 48.5756 18.7671 49.6407 17.6842C50.3743 16.9385 50.8999 16.2689 52.0018 16.006C52.5744 15.8693 53.3129 15.8082 53.7219 15.3442C54.7165 14.2162 55.6892 13.0623 56.6137 11.8778C57.0709 11.2922 57.5471 10.7215 57.9636 10.1062C57.9775 10.0857 57.9989 10.0533 58.0169 10.0213L58.017 10.0212ZM31.7243 27.5293C31.7418 27.5122 31.7589 27.4956 31.7756 27.4794C32.0067 27.2559 32.2341 27.0285 32.465 26.8049C32.6814 26.5954 32.9037 26.3906 33.1223 26.1829C33.0902 26.1524 33.0587 26.1221 33.0279 26.0918L27.0342 20.1939C26.3748 19.545 25.9515 18.805 25.8545 17.8838C25.7649 17.0325 25.9762 16.2208 26.0534 15.3807C26.098 14.8961 26.0407 14.4077 26.0194 13.9233C25.8143 9.27535 21.9355 4.9468 17.2844 4.11093C15.3549 3.76419 13.5807 3.81536 11.7069 4.38266C10.941 4.61454 10.2216 4.9265 9.52261 5.31015C9.38154 5.38757 9.15263 5.52632 8.90638 5.68555L12.6006 7.69008C13.4463 8.14886 14.2976 8.59921 15.145 9.0553C15.7034 9.35589 16.2616 9.65688 16.8179 9.9612C17.1257 10.1296 17.5066 10.3192 17.7935 10.516C18.0846 10.7158 18.2464 11.0129 18.254 11.3621L18.3654 16.5124C18.3738 16.9003 18.186 17.2376 17.8491 17.4392L14.3748 19.5195C14.0801 19.7037 13.7832 19.8935 13.4798 20.0628C13.3069 20.1592 13.1174 20.2187 12.9194 20.2358C12.3362 20.2866 11.9662 19.979 11.4938 19.7304C9.9829 18.9351 8.48378 18.0927 6.98251 17.2776C6.01773 16.7536 5.0523 16.2303 4.08347 15.7137C4.05464 15.6984 4.02574 15.6829 3.99695 15.6676C4.06018 16.4173 4.19893 17.1701 4.40738 17.8246C4.77182 18.9691 5.17992 19.783 5.81459 20.7992C6.82555 22.4177 8.77759 23.9516 10.5257 24.7358C11.6532 25.2415 12.7059 25.522 13.9425 25.6609C14.8204 25.7595 15.6032 25.7132 16.469 25.5639C17.2076 25.4364 17.9372 25.256 18.6938 25.3103C19.4425 25.3641 20.0855 25.6357 20.6839 26.0751C20.9649 26.2813 21.2555 26.579 21.5049 26.8236C21.8751 27.1868 22.2401 27.5557 22.6061 27.9232C22.8831 28.2013 23.16 28.4798 23.4401 28.755C24.9378 26.809 27.7486 25.9823 30.1456 26.7435C30.7067 26.9216 31.2428 27.1913 31.7244 27.5292L31.7243 27.5293ZM39.0049 34.6993C39.0129 34.71 39.021 34.7208 39.0288 34.7316C39.3634 35.1901 39.6163 35.6872 39.7937 36.2241C40.5948 38.6479 39.775 41.3072 37.7499 42.8265C38.2768 43.3496 38.8064 43.8703 39.3362 44.3906C40.1812 45.2201 41.0312 46.045 41.875 46.8756L49.4551 54.3352C49.824 54.6983 50.1808 55.0812 50.6173 55.3681C52.1761 56.3931 54.0796 56.3905 55.6007 55.2982C57.3863 54.0159 57.8395 51.8673 56.9367 49.9166C56.5533 49.0886 55.48 48.1868 54.828 47.5452L44.7201 37.6C43.8729 36.7665 43.0323 35.9259 42.1862 35.091C41.6516 34.5637 41.1166 34.0369 40.5787 33.513C40.5124 33.4484 40.4446 33.3812 40.3758 33.3128C40.1643 33.5316 39.9581 33.7597 39.7433 33.9728C39.5171 34.1973 39.2875 34.4183 39.0616 34.6434C39.0433 34.6616 39.0244 34.6803 39.0049 34.6994V34.6993Z" fill="#494B68"/>
</svg>
