<svg width="67" height="71" viewBox="0 0 67 71" fill="none" xmlns="http://www.w3.org/2000/svg">
<g clip-path="url(#clip0)">
<path fill-rule="evenodd" clip-rule="evenodd" d="M2.8754 65.8347L64.1359 65.85L64.1362 68.1718L2.86308 68.1566L2.87573 65.8344L2.8754 65.8347ZM7.49193 2.85361H59.5373L59.54 62.7774L59.5183 63.0074L7.47562 63.0077L7.46297 62.7774L7.49193 2.85395V2.85361ZM4.61734 63.0017C3.67612 63.0333 2.68929 63.0084 1.74341 63.0064C0.924711 63.0047 0.178261 63.2958 0.0497465 64.1894C-0.0205036 64.6799 -0.018173 69.5074 0.0683911 69.9005C0.250509 70.725 0.885091 71.0031 1.86094 71.0002C21.9508 70.9393 42.1166 70.9998 62.2161 70.9998C63.174 70.9998 64.1322 70.9975 65.0901 71.0002C66.0599 71.0025 66.7211 70.7642 66.9262 69.9384C67.0171 69.5735 67.0191 64.7939 66.9565 64.2469C66.8616 63.4198 66.2394 63.0071 65.3255 63.0064C64.3466 63.0057 63.3624 63.018 62.3843 63.0051C62.31 62.1945 62.37 52.627 62.37 51.5356V2.76389C62.37 1.74602 62.5334 0.964088 61.8922 0.394174C61.2972 -0.134867 60.3217 0.0259719 59.4005 0.0259719C42.1562 0.0259719 24.912 0.0259719 7.66739 0.0259719C6.8204 0.0259719 5.71504 -0.137193 5.14039 0.358284C4.47318 0.933848 4.62932 1.65197 4.62932 2.7054V60.0837C4.62932 60.9912 4.68892 62.1211 4.61667 63.0017H4.61734Z" fill="#494B68"/>
<path fill-rule="evenodd" clip-rule="evenodd" d="M12.6379 53.9923C13.4276 53.5357 15.8997 50.7167 16.4726 50.0192C17.624 48.6178 18.6514 47.1201 19.6769 45.4309C24.881 36.8583 27.5728 25.6487 28.7461 15.5435C28.8806 14.3847 28.9972 13.197 29.0974 12.0153L29.2921 9.31328C29.3058 9.07833 29.2432 8.56126 29.4276 8.44727C29.4996 8.54198 29.4952 8.429 29.4952 8.67657V57.6979H12.6365L12.6379 53.9933V53.9923ZM12.6468 8.44661L26.4925 8.45359C26.5018 9.46116 26.3649 10.7276 26.2744 11.7478C25.6534 18.7473 24.5098 25.4151 22.4366 32.0826C20.7955 37.3607 18.735 41.8257 15.7795 46.2245C15.34 46.8785 13.3041 49.5901 12.6365 50.0394L12.6468 8.44661ZM10.8899 5.66549C9.43432 6.02572 9.80354 7.72449 9.80354 9.37841V57.7404C9.80354 59.5881 9.60744 60.5262 11.8315 60.5249C12.2819 60.5245 30.7241 60.594 31.2039 60.496C32.6861 60.1932 32.3282 58.3319 32.3282 56.8036V8.44162C32.3282 6.50125 32.52 5.61797 30.2487 5.61897H15.7026C14.7717 5.61897 11.5495 5.50199 10.8896 5.66516L10.8899 5.66549Z" fill="#494B68"/>
<path fill-rule="evenodd" clip-rule="evenodd" d="M37.505 11.4282C37.505 11.1817 37.4234 8.63649 37.5825 8.4474C37.749 8.56903 37.7523 10.0355 37.7756 10.3545C38.6759 22.7933 41.5648 36.8986 48.417 47.1601C49.8171 49.2566 50.2662 49.6149 51.5796 51.2638C52.3287 52.2046 53.2676 52.9825 54.127 53.814C54.4466 54.1233 54.3677 54.0655 54.364 54.6378L54.3637 57.6977L37.5053 57.698V11.4286L37.505 11.4282ZM54.3477 50.0525C53.9568 49.7315 53.0745 48.6605 52.7073 48.2055C48.9481 43.5465 46.4151 37.9271 44.5659 32.0921C42.5949 25.8735 41.2479 18.3211 40.7225 11.6648C40.6439 10.6702 40.4934 9.44666 40.5091 8.4474L54.364 8.45471L54.348 50.0529L54.3477 50.0525ZM35.7217 5.6819C35.1248 5.84905 34.698 6.30133 34.6723 7.03674C34.6453 7.81767 34.6717 8.65078 34.6717 9.43736V57.7994C34.6717 59.7035 34.5158 60.526 36.7612 60.5253H51.3073C52.2575 60.5253 55.4251 60.647 56.1116 60.4858C57.5592 60.1462 57.1963 58.2812 57.1963 56.7453V8.38326C57.1963 6.44954 57.3551 5.61876 55.0612 5.61943H40.5151C39.6228 5.61943 36.3257 5.51275 35.7217 5.68157V5.6819Z" fill="#494B68"/>
<path fill-rule="evenodd" clip-rule="evenodd" d="M15.1253 30.813C15.2258 32.1857 17.0507 32.6054 17.7455 31.448C17.9826 31.0529 17.9543 30.6777 17.9533 30.1689C17.9506 28.1588 17.9533 26.1483 17.9533 24.1385C17.9533 23.0761 18.0139 12.8242 17.9453 12.0759C17.873 11.2863 17.1143 10.6154 16.2073 10.8297C15.3254 11.0381 15.1193 11.7037 15.1206 12.7212V24.7825C15.1206 26.0277 15.0574 29.8858 15.125 30.813H15.1253Z" fill="#494B68"/>
<path fill-rule="evenodd" clip-rule="evenodd" d="M49.0537 25.5371C49.1832 26.9222 51.0566 27.2794 51.7119 26.0575C52.0298 25.4643 51.879 22.412 51.879 21.4972C51.879 20.5012 51.9366 12.8557 51.872 12.0795C51.7525 10.6409 49.8311 10.3199 49.2062 11.5528C48.9122 12.1326 49.046 15.2055 49.046 16.1107L49.054 25.5371H49.0537Z" fill="#494B68"/>
<path fill-rule="evenodd" clip-rule="evenodd" d="M20.3156 16.8743C20.551 18.3541 22.6785 18.4525 23.0764 17.0319C23.1606 16.7308 23.1762 12.6051 23.116 12.1539C22.9056 10.5784 20.7162 10.5508 20.3476 11.9664C20.2704 12.2625 20.2524 16.4739 20.316 16.874L20.3156 16.8743Z" fill="#494B68"/>
<path fill-rule="evenodd" clip-rule="evenodd" d="M46.6733 16.9331C46.7386 16.6304 46.7399 12.4017 46.676 12.0714C46.3793 10.5371 44.1956 10.5896 43.9009 12.0528C43.8327 12.3917 43.835 16.6201 43.9049 16.9504C44.2145 18.4159 46.3567 18.4032 46.6733 16.9331Z" fill="#494B68"/>
<path fill-rule="evenodd" clip-rule="evenodd" d="M49.0503 30.8104C49.1079 31.6338 49.9339 32.3679 50.9091 32.0479C52.5611 31.5059 52.1333 27.9841 50.0221 28.645C49.1628 28.9142 48.975 29.7387 49.0503 30.81V30.8104Z" fill="#494B68"/>
</g>
<defs>
<clipPath id="clip0">
<rect width="67" height="71" fill="white"/>
</clipPath>
</defs>
</svg>
