<svg width="76" height="70" viewBox="0 0 76 70" fill="none" xmlns="http://www.w3.org/2000/svg">
<path fill-rule="evenodd" clip-rule="evenodd" d="M7.02332 55.7018L20.6716 55.7013L20.6726 53.9996L7.02134 53.9998L7.02332 55.7018ZM40.3659 67.2337L40.184 67.5237C40.1339 67.6035 40.0822 67.666 40.0129 67.73L39.8686 67.8633C39.5664 68.2002 39.2027 68.4783 38.8163 68.7119C38.6057 68.8392 38.3946 68.9375 38.1838 69.0539C38.089 69.1189 37.9898 69.1634 37.8728 69.194C37.5524 69.2779 37.1971 69.3457 36.8828 69.4451C36.7154 69.5195 36.5375 69.5436 36.3455 69.518L36.2726 69.5082C33.8202 69.579 31.3645 69.5345 28.9116 69.5163C26.4607 69.4981 24.0096 69.5228 21.5587 69.5182C16.6717 69.5089 11.7848 69.4861 6.89801 69.5175C5.73264 69.5249 4.53653 69.5468 3.42093 69.1577C2.24763 68.7486 1.40167 67.9658 0.769145 66.9085C0.0260173 65.6663 0.0334568 64.6844 0.0334568 63.2863L0.0337874 52.2963C0.0339527 49.8346 -0.0559831 47.3677 0.0569327 44.9075C0.061727 44.8027 0.079086 44.7137 0.1143 44.6149C0.120747 44.5963 0.125542 44.577 0.129675 44.5578C0.167203 44.3882 0.188695 44.2194 0.231183 44.048C0.313018 43.7181 0.438829 43.4065 0.590927 43.1031C1.42531 41.44 2.85238 40.5241 4.66796 40.2171C4.72665 40.2072 4.77724 40.2029 4.83676 40.2029L36.1814 40.1875C36.1974 40.1875 36.2111 40.1878 36.2273 40.1885C38.7641 40.3019 40.8906 42.1681 41.2566 44.685C41.3578 45.3808 41.3538 46.1471 41.3466 46.8507C41.3405 47.4571 41.3193 48.0637 41.3163 48.6699C41.2904 53.8167 41.376 58.9638 41.3152 64.1104C41.3029 65.1449 41.1102 65.9961 40.5877 66.894C40.5186 67.0128 40.4444 67.1221 40.3662 67.2337H40.3659ZM3.80927 45.0928C3.80134 45.4393 3.77968 45.7901 3.76778 46.1401L37.5987 46.1547C37.5951 45.7392 37.5729 45.3049 37.5362 45.1131C37.3319 44.2222 36.664 43.9193 35.8005 43.9193L5.11648 43.9183C4.9915 43.9445 4.84254 43.9744 4.74484 44.0088C4.63093 44.124 4.49702 44.2062 4.34442 44.254C4.30888 44.2796 4.27383 44.306 4.24011 44.3338C4.23696 44.3365 4.23349 44.3393 4.23019 44.3421C4.16538 44.5043 4.06321 44.6398 3.92483 44.7481C3.88532 44.8332 3.843 44.9754 3.80927 45.0926V45.0928ZM3.75505 52.4492C3.73818 53.911 3.77174 55.3739 3.77191 56.8354C3.77208 58.6174 3.76116 60.3996 3.77075 62.1816C3.77439 62.8722 3.66544 64.3306 3.94087 64.9471C4.05825 65.2097 4.25631 65.394 4.49206 65.5524C4.89776 65.825 5.74752 65.7792 6.21572 65.7761C7.11805 65.7701 8.02055 65.7759 8.92288 65.7769L9.85663 65.7777H35.6499C35.7798 65.7777 36.1058 65.7984 36.232 65.7694C36.2868 65.7503 36.3363 65.7377 36.3943 65.7278C36.8332 65.6532 37.3552 65.2326 37.4661 64.7962C37.4765 64.7554 37.4879 64.7187 37.5021 64.682C37.5648 64.4034 37.5683 63.8932 37.5772 63.6138C37.5987 62.9449 37.6003 62.2735 37.5985 61.6041C37.5956 60.5067 37.5603 59.3994 37.5739 58.3038C37.5879 57.1609 37.5698 56.018 37.5706 54.8751C37.5712 54.0705 37.6027 53.2584 37.5951 52.4507L37.4825 52.4518C31.8731 52.5104 26.2633 52.4421 20.6537 52.4495C17.6713 52.4535 14.6874 52.4356 11.7046 52.4332C9.74917 52.4315 7.79356 52.4308 5.83795 52.437C5.15649 52.4391 4.47486 52.4416 3.7934 52.4485C3.78051 52.4487 3.76761 52.4487 3.75455 52.4489L3.75505 52.4492Z" fill="#494B68"/>
<path fill-rule="evenodd" clip-rule="evenodd" d="M43.4533 62.4707C47.0254 62.4667 50.5972 62.4608 54.1694 62.4553C57.2593 62.4122 58.8452 62.6853 61.2341 61.2731C64.1321 59.56 64.9245 57.0349 65.1237 56.8457L65.6311 55.2056C65.5458 54.9888 65.5897 54.8228 65.6132 54.5552C65.6663 52.2783 65.8784 33.3459 65.6661 31.1132C65.4163 31.2763 62.297 36.7232 61.6517 37.8134C61.1801 38.6104 61.3039 38.5825 61.3039 39.6326V52.5427C61.3039 52.9939 61.3606 54.3158 61.2808 54.6654C61.2189 54.9362 60.6867 55.8991 60.5646 56.0915C60.014 56.958 59.2631 57.447 58.1766 57.94C57.543 58.2277 54.916 58.077 54.0308 58.0762L43.4531 58.0519V62.4708L43.4533 62.4707ZM43.4533 4.41744L56.5991 4.41992C56.8541 4.41925 57.109 4.41727 57.3637 4.41363L57.9984 4.53597L58.2605 4.61913C59.3101 4.95556 60.589 6.07249 60.8924 7.01003C61.3738 7.48021 61.2755 10.2378 61.2887 11.0857C61.3441 11.6763 61.3137 12.4513 61.3375 13.0863L61.3542 14.5789C61.3723 15.0112 61.4176 14.9743 61.5051 15.0352C61.5372 14.7936 61.9774 14.0538 62.1332 13.906C62.2831 13.4943 64.8757 9.17974 65.1825 8.65302C65.6279 7.88823 65.6865 8.1134 65.4806 7.14345C65.3613 6.58052 65.2325 6.14043 65.0185 5.60032C64.0165 3.06956 61.1617 0.360405 58.1257 0.141351C56.8936 0.0524075 50.3005 0.0591857 50.0978 0H43.4535V4.41744H43.4533Z" fill="#494B68"/>
<path fill-rule="evenodd" clip-rule="evenodd" d="M55.5115 42.6605C55.5763 42.4392 56.1531 41.7546 56.3555 41.4674C56.493 41.272 57.0227 40.3974 57.16 40.3024C57.2813 39.9011 57.9135 38.9757 58.1628 38.5574L63.2067 30.0672C63.4705 29.6129 65.0203 26.9021 65.2428 26.7396C65.2667 26.5475 65.255 26.5351 65.4089 26.4156C65.5083 26.0862 66.4157 24.6449 66.7123 24.1316C66.7965 23.986 66.8257 23.9265 66.9129 23.7787L67.1752 23.4424C67.2028 23.2266 68.5208 20.9769 68.6709 20.862C68.7726 20.5233 70.2903 18.0317 70.6082 17.478L74.4802 10.8C75.6628 8.80021 75.8893 8.72813 75.6891 6.88791C75.615 6.78343 75.5004 6.40467 75.3827 6.20116C75.2346 5.94491 75.0889 5.82125 75.0354 5.60401L74.8105 5.36314C74.6143 5.27982 74.4313 5.10557 74.1968 4.96058C74.0173 4.84964 73.7442 4.75194 73.6053 4.64878C72.1242 4.35599 70.9673 4.55372 70.2033 5.48035C69.6987 6.09221 65.5652 13.109 65.2186 13.6835C63.0177 17.3327 60.8331 21.066 58.7074 24.7316L52.2785 35.8616C50.796 38.386 50.4649 39.0945 49.4418 41.8394C48.9649 43.1193 47.4791 47.8216 48.3266 48.9313C49.4081 49.0321 51.7916 46.6579 52.3024 46.1614C52.602 45.8703 52.829 45.6033 53.1211 45.3132C54.0686 44.3723 54.4835 43.7738 55.2677 42.8821L55.5119 42.6601L55.5115 42.6605Z" fill="#494B68"/>
<path fill-rule="evenodd" clip-rule="evenodd" d="M43.4533 23.4254C47.4943 23.4415 51.5571 23.4557 55.5576 23.3272C56.3082 23.2384 56.4932 23.1288 56.6697 22.4193C56.8134 21.8418 56.7643 21.0563 56.4836 20.5886C56.1683 20.0632 55.5146 20.1444 54.7953 20.1274C54.0884 20.1107 53.4117 20.0928 52.6992 20.0914L51.3369 20.0847L49.9356 20.0813L48.5519 20.0781L47.1506 20.0783C45.9189 20.0785 44.6863 20.0786 43.4531 20.0793V23.4253L43.4533 23.4254Z" fill="#494B68"/>
<path fill-rule="evenodd" clip-rule="evenodd" d="M43.4531 30.1123L52.5765 30.1277C52.8155 29.683 54.3473 27.1891 54.3582 26.9002C50.5939 26.8409 47.0178 26.8125 43.4531 26.8047V30.1123Z" fill="#494B68"/>
<path fill-rule="evenodd" clip-rule="evenodd" d="M43.4531 36.8406L48.7557 36.8387C48.9432 36.637 50.3992 33.7841 50.468 33.4922L43.4531 33.5043V36.8408V36.8406Z" fill="#494B68"/>
<path fill-rule="evenodd" clip-rule="evenodd" d="M26.2917 3.81351L23.2509 6.35701C22.4498 7.04988 21.4876 8.09422 21.0913 8.43066C20.8331 8.64987 20.6426 8.88315 20.413 9.14055C19.5527 10.1042 18.6738 11.0244 17.9089 12.2579C17.5491 12.838 17.2378 13.3872 16.9855 14.116C16.8609 14.4762 16.7579 14.843 16.7172 15.259C16.679 15.65 16.747 16.2414 16.6172 16.553V38.7653H21.0599L21.0598 20.5452C21.0649 19.0274 20.9498 17.0994 21.0713 15.6346L23.6272 15.5877C23.9322 15.581 24.3105 15.5323 24.5682 15.6295L25.8487 15.5475C27.9534 15.5078 29.8118 15.6387 31.5971 14.7017C35.0487 12.8898 34.3241 8.44735 34.5189 4.42835C36.3908 4.32271 38.5212 4.4257 40.4247 4.41694L56.5971 4.41992C56.8521 4.41925 57.107 4.41727 57.3618 4.41363L57.9964 4.53597L58.2585 4.61913C59.3081 4.95556 60.587 6.07249 60.8904 7.01003C61.3718 7.48021 61.2735 10.2378 61.2867 11.0857C61.3421 11.6763 61.3117 12.4513 61.3355 13.0863L61.3522 14.5789C61.3703 15.0112 61.4156 14.9743 61.5031 15.0352C61.5352 14.7936 61.9754 14.0538 62.1312 13.906C62.2811 13.4943 64.8737 9.17974 65.1805 8.65302C65.6259 7.88823 65.6845 8.1134 65.4786 7.14345C65.3593 6.58052 65.2305 6.14043 65.0165 5.60032C64.0145 3.06956 61.1597 0.360405 58.1237 0.141351C56.8916 0.0524075 50.2985 0.0591857 50.0958 0H35.2933C34.421 0.326017 33.9548 -0.478445 30.2707 1.36855C29.5615 1.72416 28.8607 2.12374 28.2437 2.53292C27.8909 2.76685 26.5367 3.73432 26.2922 3.81318L26.2917 3.81351ZM65.7547 38.7655C65.763 35.0548 65.7425 31.9399 65.664 31.1137C65.4142 31.2768 62.2948 36.7237 61.6496 37.8139C61.3675 38.2903 61.2984 38.472 61.2885 38.7656H65.7547V38.7655Z" fill="#494B68"/>
<path fill-rule="evenodd" clip-rule="evenodd" d="M55.5076 42.6605C55.5724 42.4392 56.1492 41.7546 56.3516 41.4674C56.4891 41.272 57.0188 40.3974 57.1561 40.3024C57.2774 39.9011 57.9096 38.9757 58.1589 38.5574L63.2027 30.0672C63.4666 29.6129 65.0163 26.9021 65.2389 26.7396C65.2628 26.5475 65.2511 26.5351 65.405 26.4156C65.5044 26.0862 66.4118 24.6449 66.7084 24.1316C66.7926 23.986 66.8218 23.9265 66.909 23.7787L67.1713 23.4424C67.1989 23.2266 68.5169 20.9769 68.667 20.862C68.7687 20.5233 70.2864 18.0317 70.6043 17.478L74.4763 10.8C75.6589 8.80021 75.8854 8.72813 75.6851 6.88791C75.6111 6.78343 75.4965 6.40467 75.3788 6.20116C75.2307 5.94491 75.085 5.82125 75.0315 5.60401L74.8066 5.36314C74.6104 5.27982 74.4274 5.10557 74.1929 4.96058C74.0134 4.84964 73.7403 4.75194 73.6014 4.64878C72.1203 4.35599 70.9634 4.55372 70.1994 5.48035C69.6948 6.09221 65.5612 13.109 65.2147 13.6835C63.0138 17.3327 60.8292 21.066 58.7035 24.7316L52.2746 35.8616C50.7921 38.386 50.461 39.0945 49.4379 41.8394C48.961 43.1193 47.4752 47.8216 48.3227 48.9313C49.4042 49.0321 51.7877 46.6579 52.2985 46.1614C52.5981 45.8703 52.8251 45.6033 53.1172 45.3132C54.0647 44.3723 54.4796 43.7738 55.2638 42.8821L55.5079 42.6601L55.5076 42.6605Z" fill="#494B68"/>
<path fill-rule="evenodd" clip-rule="evenodd" d="M26.3195 20.2293C25.9151 20.4333 26.0068 20.5661 25.7866 20.757C25.6367 21.3965 25.54 21.9373 25.7703 22.5784C26.0042 23.2296 26.2664 23.3037 27.0299 23.3319C30.7754 23.4715 35.4688 23.4201 39.2468 23.4201C44.6594 23.4201 50.1652 23.5062 55.5575 23.3331C56.3081 23.2442 56.4931 23.1347 56.6697 22.4251C56.8133 21.8477 56.7642 21.0624 56.4835 20.5945C56.1682 20.0691 55.5146 20.1503 54.7952 20.1333C54.0883 20.1166 53.4116 20.0987 52.6991 20.0972L51.3368 20.0906L49.9357 20.0871L48.5518 20.084L47.1507 20.0843C43.6642 20.0845 40.1686 20.0847 36.6786 20.1002C33.3078 20.1152 29.6359 19.9833 26.3193 20.2292L26.3195 20.2293Z" fill="#494B68"/>
<path fill-rule="evenodd" clip-rule="evenodd" d="M31.0574 26.8389L26.6805 26.9119C25.1995 26.9804 25.4703 29.4672 26.2554 29.9276C26.4489 30.041 26.4138 30.0071 26.6198 30.018C26.9581 30.0359 27.3064 30.0366 27.6471 30.0559C28.2864 30.0923 28.9998 30.0781 29.6692 30.0837L52.5775 30.122C52.8168 29.6773 54.3483 27.1834 54.3592 26.8946C46.3073 26.7676 39.1166 26.782 31.0574 26.8387V26.8389Z" fill="#494B68"/>
<path fill-rule="evenodd" clip-rule="evenodd" d="M26.3349 33.6372C25.9296 33.8187 25.8011 34.1009 25.6597 34.6392C25.5933 35.3541 25.6546 35.5108 25.791 36.1402C25.8442 36.196 25.9284 36.3425 26 36.4305C26.0927 36.5444 26.2366 36.6373 26.3017 36.6996C29.379 36.9537 32.9412 36.834 36.0706 36.8385L37.4114 36.843L48.7552 36.8387C48.9427 36.637 50.3987 33.7841 50.4675 33.4922L32.3052 33.5233C30.3536 33.5401 28.2699 33.4907 26.3349 33.6373V33.6372Z" fill="#494B68"/>
</svg>
