<svg width="65" height="59" viewBox="0 0 65 59" fill="none" xmlns="http://www.w3.org/2000/svg">
<path fill-rule="evenodd" clip-rule="evenodd" d="M54.6516 54.6515H37.1578V31.5019H56.5588V53.0731C56.5588 53.9407 55.7471 54.6515 54.6516 54.6515ZM13.5478 52.7443V31.5019H33.0146V54.6515H15.6523C14.3434 54.6515 13.5478 54.0436 13.5478 52.7443ZM37.1578 19.0721H58.7291C59.2258 19.0721 59.6054 19.3756 59.8658 19.6453C60.162 19.9521 60.3075 20.3356 60.3075 20.9136V27.2929H37.1578V19.0721ZM41.3011 14.8631C41.3646 14.5903 43.4629 10.5528 43.7724 10.0344C44.6515 8.56187 46.9837 4.14324 48.7326 4.14324C50.8641 4.14324 52.8353 5.57544 53.5538 7.21402C54.3796 9.09733 54.2127 11.3578 52.8256 12.9057C52.7216 13.0218 52.6846 13.0523 52.5757 13.1819L51.6542 13.9703C49.9721 15.1219 47.9721 14.8631 45.8389 14.8631C44.3263 14.8631 42.8137 14.8631 41.3011 14.8631V14.8631ZM11.9694 8.0892C12.5631 8.13858 14.2904 8.70416 14.9946 8.8785C15.2732 8.94752 15.7923 9.12028 16.0469 9.14145C16.1898 8.52801 16.5424 7.92841 16.8631 7.39279C17.018 7.134 17.1999 6.87267 17.3624 6.64254C17.5252 6.412 17.7429 6.12397 17.9382 5.90298C18.6151 5.13675 19.968 4.14324 21.374 4.14324C22.6783 4.14324 24.1699 6.40316 24.8067 7.41868C25.4802 8.49279 28.516 14.1192 28.674 14.7974C26.1891 14.7974 24.3517 13.8882 22.3696 13.0784C22.1815 13.0015 22.0178 12.9075 21.8335 12.8253C21.6208 12.7304 21.4449 12.6639 21.2422 12.5616C20.5283 12.2012 19.8332 11.8407 19.0949 11.4863C17.6115 10.7742 16.0892 10.1356 14.5262 9.60999C11.0855 8.45292 6.69112 8.11389 3.35381 9.7989C2.33648 10.3125 0 11.6384 0 12.9559V13.4163C0 15.0689 2.17982 16.093 3.63348 14.6164C6.70387 11.4977 12.4987 12.8359 15.9814 14.5998L17.1208 15.1704C17.8656 15.572 18.653 15.9307 19.4566 16.2543C21.9118 17.2426 24.6373 18.0966 27.3312 18.6392C29.7862 19.1338 30.5865 19.0722 33.0145 19.0722V27.2929H9.86487V20.5848C9.86487 19.6798 10.7116 19.0762 11.572 19.0693L21.3739 19.0722C21.1719 18.7964 17.5569 17.1636 17.1649 16.9677L13.964 15.4334C12.393 14.7055 13.0724 14.9289 10.9829 14.9289C8.89264 14.9289 6.84994 16.6295 6.10586 18.4699C5.8452 19.1146 5.65584 19.9294 5.65584 20.8479V31.5019H9.4045V53.139C9.4045 56.1613 12.038 58.7949 15.0604 58.7949H55.1777C56.5639 58.7949 58.3242 58.0196 59.1702 56.9999C60.1904 55.7702 60.7678 54.5484 60.7678 52.8102V31.5019H64.4507V20.3875C64.4507 19.4687 64.0698 18.4169 63.7154 17.8345C63.4124 17.3366 63.0739 16.7935 62.6191 16.4317C62.4449 16.293 62.3103 16.1615 62.1498 16.0459C60.326 14.7323 58.8639 14.9289 56.6245 14.9289C56.8266 14.547 57.0266 14.2573 57.2384 13.8328C58.7874 10.7273 58.5438 6.98713 56.6123 4.15548C56.4401 3.90299 56.2743 3.71186 56.0989 3.48503C54.3983 1.28445 51.487 0 48.6668 0C47.68 0 46.5846 0.557376 45.9331 0.949221C45.5109 1.20313 45.2032 1.39336 44.8371 1.69466C44.6577 1.84231 44.4971 1.97159 44.3257 2.10393C44.119 2.26349 44.0084 2.41621 43.8099 2.57464C43.5933 2.74756 43.5219 2.8106 43.323 3.00845C43.1246 3.20571 43.069 3.30445 42.8954 3.50155C42.0031 4.51408 41.1591 5.53447 40.4332 6.69526L39.4166 8.44082C38.8905 9.48559 38.3377 10.4859 37.8999 11.5935C37.7153 12.0605 37.5629 12.4276 37.3747 12.9097C37.3059 13.0859 36.8883 14.2412 36.8463 14.2703C36.6896 14.3786 36.2846 14.2227 36.1018 14.2092L33.3433 14.1397L32.6009 12.5146C32.1986 11.5735 31.7188 10.6937 31.2607 9.77724C30.5583 8.37203 29.7754 6.94956 28.8532 5.67389C28.6171 5.34738 28.4367 5.07604 28.1948 4.75391C26.5765 2.59933 24.3457 0 21.3738 0C20.0537 0 18.7965 0.439296 17.9568 0.923558C17.0529 1.44481 16.2096 2.11094 15.4708 2.84382C14.5556 3.75163 13.8322 4.81876 13.1264 5.89229C12.7627 6.44554 12.1094 7.48814 11.9693 8.08926L11.9694 8.0892Z" fill="#494B68"/>
</svg>
