<svg width="16" height="16" viewBox="0 0 16 16" fill="none" xmlns="http://www.w3.org/2000/svg">
<path d="M11.9335 0.0898438H3.36922C1.52083 0.0898438 0.0351562 1.59018 0.0351562 3.43857V11.9952C0.0351562 13.8512 1.52083 15.3746 3.36922 15.3746H11.9335C13.7819 15.3746 15.3199 13.8512 15.3199 11.9952V3.43857C15.3199 1.59018 13.7819 0.0898438 11.9335 0.0898438Z" fill="#FEFEFE"/>
<path fill-rule="evenodd" clip-rule="evenodd" d="M3.36556 0H11.9299C13.7783 0 15.2956 1.51717 15.2956 3.36556V11.9222C15.2956 13.7782 13.7783 15.2955 11.9299 15.2955H3.36556C1.51717 15.2955 0 13.7782 0 11.9222V3.36556C0 1.51717 1.51717 0 3.36556 0Z" fill="url(#paint0_linear)"/>
<path d="M5.40462 3.33381C4.26276 3.33381 3.33375 4.26265 3.33375 5.40452V9.88953C3.33375 11.0314 4.26276 11.9603 5.40462 11.9603H9.88942C11.0313 11.9603 11.9602 11.0314 11.9602 9.88953V5.40452C11.9602 4.26265 11.0313 3.33381 9.88942 3.33381H5.40462ZM9.88942 12.8527H5.40462C3.77079 12.8527 2.44141 11.5235 2.44141 9.88953V5.40452C2.44141 3.77074 3.77074 2.44141 5.40462 2.44141H9.88942C11.5234 2.44141 12.8527 3.77074 12.8527 5.40452V9.88953C12.8527 11.5235 11.5234 12.8527 9.88942 12.8527Z" fill="#FEFEFE"/>
<path d="M7.64625 5.87287C6.66843 5.87287 5.87282 6.66838 5.87282 7.64631C5.87282 8.62407 6.66838 9.41963 7.64625 9.41963C8.62407 9.41963 9.41969 8.62407 9.41969 7.64631C9.41969 6.66838 8.62413 5.87287 7.64625 5.87287ZM7.64625 10.312C6.1763 10.312 4.98047 9.1162 4.98047 7.64631C4.98047 6.17636 6.1763 4.98047 7.64625 4.98047C9.11615 4.98047 10.3121 6.17641 10.3121 7.64631C10.3121 9.11625 9.11615 10.312 7.64625 10.312Z" fill="#FEFEFE"/>
<path d="M11.0705 4.83217C11.0705 5.18612 10.7837 5.47288 10.4298 5.47288C10.0761 5.47288 9.78906 5.18612 9.78906 4.83217C9.78906 4.47843 10.0761 4.19141 10.4298 4.19141C10.7837 4.19141 11.0705 4.47843 11.0705 4.83217Z" fill="#FEFEFE"/>
<defs>
<linearGradient id="paint0_linear" x1="7.64775" y1="0.258281" x2="7.64775" y2="14.8608" gradientUnits="userSpaceOnUse">
<stop stop-color="#FBC24E"/>
<stop offset="0.329412" stop-color="#E5233C"/>
<stop offset="0.65098" stop-color="#B13A8C"/>
<stop offset="1" stop-color="#5E529C"/>
</linearGradient>
</defs>
</svg>
