<svg width="130" height="120" viewBox="0 0 130 120" fill="none" xmlns="http://www.w3.org/2000/svg">
<path d="M47.6924 32.9847L78.7493 17.457L79.9702 76.2883L49.1189 95.7088L47.6924 32.9847Z" fill="#7C9D9C"/>
<path d="M106.793 14.8165H101.709V97.1954H106.793V14.8165Z" fill="#265077"/>
<path d="M27.6656 14.8165H22.5814V97.1954H27.6656V14.8165Z" fill="#265077"/>
<path d="M106.793 14.8165H94.7765V19.79H106.793V14.8165Z" fill="#265077"/>
<path d="M82.7594 80.4466L54.4737 95.9724L49.1189 95.7088L48.0418 94.28L79.9702 76.2883L82.7594 80.4466Z" fill="#265077"/>
<path d="M81.333 17.7224L51.4106 34.0269L47.6924 32.9847L46.6153 31.5559L76.2681 14.9349L81.333 17.7224Z" fill="#265077"/>
<path d="M82.7595 80.4465V19.4829H77.6753V80.4465H82.7595Z" fill="#265077"/>
<path d="M51.6996 92.2219L51.6996 31.5559H46.6154V92.2219H51.6996Z" fill="#265077"/>
<path d="M82.7594 14.8165H26.5558V19.79H82.7594V14.8165Z" fill="#265077"/>
<path d="M34.5984 92.2219H22.5814V97.1954H34.5984V92.2219Z" fill="#265077"/>
<path d="M103.054 92.2219H46.6154V97.1954H103.054V92.2219Z" fill="#265077"/>
<path d="M38.8207 70.116C38.1524 70.1159 37.6569 70.4327 37.3344 71.0665C37.007 71.6923 36.8429 72.6591 36.842 73.967L36.8394 77.8665L40.7844 77.8674L40.787 73.9679C40.7879 72.66 40.6275 71.6931 40.3057 71.0672C39.9792 70.4332 39.4842 70.1162 38.8207 70.116ZM31.2201 68.8144L32.4173 68.8147L32.4112 77.8655L35.6422 77.8663L35.6449 73.8463C35.6462 71.8324 35.9093 70.2798 36.4341 69.1887C36.9589 68.0976 37.755 67.5522 38.8224 67.5524C39.885 67.5527 40.678 68.0824 41.2013 69.1417C41.7247 70.1929 41.9857 71.7616 41.9843 73.8478L41.98 80.2989L31.2124 80.2965L31.2201 68.8144Z" fill="#265077"/>
<path d="M31.2329 49.786L42.0005 49.7884L41.9989 52.1474L32.991 52.1454L41.9935 60.1151L41.9913 63.3888L31.2237 63.3863L31.2253 61.0273L40.2332 61.0294L31.2307 53.0597L31.2329 49.786Z" fill="#265077"/>
<path d="M31.2361 44.9476L31.2377 42.5164L35.6515 42.5174L35.6575 33.6832L31.2437 33.6822L31.2453 31.251L42.0129 31.2535L42.0113 33.6847L36.8835 33.6835L36.8776 42.5177L42.0053 42.5189L42.0037 44.9501L31.2361 44.9476Z" fill="#265077"/>
<path d="M89.4303 74.4937C89.4386 75.7159 89.8303 76.6872 90.6053 77.4076C91.3803 78.1224 92.4323 78.4783 93.7611 78.4752C95.0853 78.4721 96.13 78.1113 96.8951 77.3928C97.6603 76.6688 98.0387 75.6957 98.0303 74.4735C98.022 73.2512 97.6303 72.2855 96.8554 71.5762C96.0804 70.8614 95.0308 70.5055 93.7066 70.5086C92.3778 70.5117 91.3307 70.8725 90.5655 71.591C89.8003 72.3039 89.4219 73.2714 89.4303 74.4937ZM88.2751 74.4964C88.2632 72.7519 88.7491 71.3563 89.7327 70.3096C90.7116 69.2628 92.0322 68.7375 93.6945 68.7336C95.352 68.7297 96.6798 69.2488 97.6777 70.2909C98.6709 71.3331 99.1735 72.7263 99.1854 74.4707C99.1974 76.2207 98.714 77.6219 97.7351 78.6742C96.7561 79.7209 95.4355 80.2463 93.7733 80.2502C92.111 80.2541 90.7833 79.735 89.79 78.6928C88.7921 77.6452 88.2871 76.2463 88.2751 74.4964Z" fill="#265077"/>
<path d="M88.4082 66.1128L88.3966 64.4295L93.5947 64.4173L88.3553 58.4129L88.3405 56.2546L92.5292 61.0531L98.8547 55.98L98.8673 57.8133L93.4805 62.1426L95.4612 64.413L98.9125 64.4049L98.9241 66.0882L88.4082 66.1128Z" fill="#265077"/>
<path d="M88.3253 53.9964L88.3137 52.313L92.6243 52.303L92.5823 46.1863L88.2717 46.1964L88.2602 44.5131L98.7761 44.4885L98.7876 46.1718L93.7797 46.1835L93.8217 52.3002L98.8296 52.2884L98.8412 53.9718L88.3253 53.9964Z" fill="#265077"/>
<path d="M89.6106 37.0017L94.8595 39.2727L94.8281 34.6978L89.6106 37.0017ZM88.2155 37.9549L88.2023 36.0466L98.6857 31.2804L98.6977 33.0304L96.0078 34.17L96.0463 39.7783L98.7518 40.9053L98.764 42.6803L88.2155 37.9549Z" fill="#265077"/>
<path d="M50.3022 56.1275H48.127V65.4069H50.3022V56.1275Z" fill="white"/>
<path d="M55.67 58.49L54.5863 57.112L48.1293 61.351L49.213 62.729L55.67 58.49Z" fill="white"/>
<path d="M50.9502 60.419L77.6633 19.8122L50.9502 60.419Z" fill="#F9F9F9"/>
<path d="M50.9502 60.419L77.6633 19.8122" stroke="white"/>
<path d="M50.9502 60.419L77.676 77.6176L50.9502 60.419Z" fill="#F9F9F9"/>
<path d="M50.9502 60.419L77.676 77.6176" stroke="white"/>
<path d="M65.3611 26.2814L77.676 77.6176L65.3611 26.2814Z" fill="#F9F9F9"/>
<path d="M65.3611 26.2814L77.676 77.6176" stroke="white"/>
<path d="M65.3611 26.2814L51.6996 92.2219L65.3611 26.2814Z" fill="#F9F9F9"/>
<path d="M65.3611 26.2814L51.6996 92.2219" stroke="white"/>
<path d="M75.5302 24.8081L74.0517 23.9394L73.4561 24.9459L74.9346 25.8146L75.5302 24.8081Z" fill="#7C9D9C"/>
<path d="M72.4033 29.4478L70.9248 28.5792L70.3292 29.5856L71.8077 30.4543L72.4033 29.4478Z" fill="#7C9D9C"/>
<path d="M67.3093 29.4806L65.6384 29.8717L65.9066 31.0091L67.5775 30.618L67.3093 29.4806Z" fill="#7C9D9C"/>
<path d="M65.3242 29.1784L63.6225 28.9554L63.4696 30.1139L65.1713 30.3369L65.3242 29.1784Z" fill="#7C9D9C"/>
<path d="M64.459 32.8185L62.7573 32.5955L62.6044 33.7539L64.3061 33.9769L64.459 32.8185Z" fill="#7C9D9C"/>
<path d="M64.0985 36.5542L62.3968 36.3312L62.2439 37.4897L63.9456 37.7127L64.0985 36.5542Z" fill="#7C9D9C"/>
<path d="M62.993 40.1463L61.2913 39.9233L61.1384 41.0818L62.8401 41.3048L62.993 40.1463Z" fill="#7C9D9C"/>
<path d="M61.6306 48.1117L59.9289 47.8887L59.776 49.0471L61.4777 49.2701L61.6306 48.1117Z" fill="#7C9D9C"/>
<path d="M60.9336 51.9911L59.2319 51.7681L59.079 52.9266L60.7807 53.1496L60.9336 51.9911Z" fill="#7C9D9C"/>
<path d="M60.3208 55.6072L58.6191 55.3842L58.4662 56.5426L60.1679 56.7656L60.3208 55.6072Z" fill="#7C9D9C"/>
<path d="M59.4556 59.4986L57.7539 59.2756L57.601 60.434L59.3027 60.657L59.4556 59.4986Z" fill="#7C9D9C"/>
<path d="M59.1248 63.0874L57.423 62.8644L57.2701 64.0228L58.9719 64.2458L59.1248 63.0874Z" fill="#7C9D9C"/>
<path d="M57.9896 67.078L56.2878 66.855L56.135 68.0134L57.8367 68.2364L57.9896 67.078Z" fill="#7C9D9C"/>
<path d="M57.0883 71.0891L55.3866 70.8661L55.2337 72.0246L56.9354 72.2476L57.0883 71.0891Z" fill="#7C9D9C"/>
<path d="M56.3073 75.0764L54.6055 74.8534L54.4526 76.0118L56.1544 76.2348L56.3073 75.0764Z" fill="#7C9D9C"/>
<path d="M55.2138 79.1235L53.512 78.9005L53.3591 80.0589L55.0609 80.2819L55.2138 79.1235Z" fill="#7C9D9C"/>
<path d="M54.5529 83.3143L52.8511 83.0913L52.6982 84.2497L54.4 84.4727L54.5529 83.3143Z" fill="#7C9D9C"/>
<path d="M53.7598 88.0079L52.058 87.7849L51.9051 88.9434L53.6069 89.1664L53.7598 88.0079Z" fill="#7C9D9C"/>
<path d="M61.9358 44.1862L62.4883 44.1976L62.3354 45.356L61.1945 45.1923L61.9358 44.1862Z" fill="#7C9D9C"/>
<path d="M61.4408 43.7332L62.004 43.7996L61.9299 43.962L61.5683 43.8059L61.4211 44.0355L61.4408 43.7332Z" fill="#7C9D9C"/>
<path d="M67.3527 33.3592L65.6818 33.7503L65.9499 34.8877L67.6208 34.4966L67.3527 33.3592Z" fill="#7C9D9C"/>
<path d="M69.1617 37.2022L67.4908 37.5933L67.7589 38.7307L69.4298 38.3396L69.1617 37.2022Z" fill="#7C9D9C"/>
<path d="M69.8074 40.8598L68.1365 41.2509L68.4047 42.3883L70.0756 41.9972L69.8074 40.8598Z" fill="#7C9D9C"/>
<path d="M70.5722 44.8053L68.9013 45.1964L69.1694 46.3338L70.8403 45.9427L70.5722 44.8053Z" fill="#7C9D9C"/>
<path d="M71.6258 48.6322L69.9549 49.0233L70.2231 50.1607L71.894 49.7696L71.6258 48.6322Z" fill="#7C9D9C"/>
<path d="M72.5435 52.4083L70.8726 52.7994L71.1407 53.9369L72.8116 53.5457L72.5435 52.4083Z" fill="#7C9D9C"/>
<path d="M73.4441 56.4215L71.7732 56.8126L72.0414 57.9501L73.7123 57.559L73.4441 56.4215Z" fill="#7C9D9C"/>
<path d="M74.7187 60.3162L73.0478 60.7073L73.3159 61.8448L74.9869 61.4536L74.7187 60.3162Z" fill="#7C9D9C"/>
<path d="M75.4834 64.3294L73.8125 64.7205L74.0807 65.8579L75.7516 65.4668L75.4834 64.3294Z" fill="#7C9D9C"/>
<path d="M76.2991 68.5796L74.6282 68.9708L74.8964 70.1082L76.5673 69.7171L76.2991 68.5796Z" fill="#7C9D9C"/>
<path d="M76.9109 72.7114L75.24 73.1025L75.5082 74.2399L77.1791 73.8488L76.9109 72.7114Z" fill="#7C9D9C"/>
<path d="M68.2164 33.4902L69.3104 34.1553L68.7148 35.1618L67.6208 34.4966L68.2164 33.4902Z" fill="#7C9D9C"/>
<path d="M66.0475 38.6257L64.569 37.757L63.9735 38.7635L65.452 39.6322L66.0475 38.6257Z" fill="#7C9D9C"/>
<path d="M62.1856 42.8667L63.2605 43.5364L62.6649 44.5428L61.9299 43.962L62.1856 42.8667Z" fill="#7C9D9C"/>
<path d="M60.3716 48.0406L58.8931 47.1719L58.2975 48.1784L59.776 49.0471L60.3716 48.0406Z" fill="#7C9D9C"/>
<path d="M57.2787 52.511L55.8001 51.6423L55.2046 52.6488L56.6831 53.5175L57.2787 52.511Z" fill="#7C9D9C"/>
<path d="M53.9478 56.7782L52.4693 55.9095L51.8737 56.916L53.3523 57.7847L53.9478 56.7782Z" fill="#7C9D9C"/>
<path d="M54.8029 63.9433L55.6923 62.4806L54.6894 61.8752L53.8 63.3379L54.8029 63.9433Z" fill="#7C9D9C"/>
<path d="M54.8029 63.9433L55.6923 62.4806L54.6894 61.8752L53.8 63.3379L54.8029 63.9433Z" fill="#7C9D9C"/>
<path d="M59.0854 66.314L59.9748 64.8513L58.9719 64.2458L58.0825 65.7086L59.0854 66.314Z" fill="#7C9D9C"/>
<path d="M63.2999 68.8879L64.1893 67.4251L63.1864 66.8197L62.297 68.2824L63.2999 68.8879Z" fill="#7C9D9C"/>
<path d="M67.4464 72.0036L68.3358 70.5409L67.3329 69.9354L66.4435 71.3982L67.4464 72.0036Z" fill="#7C9D9C"/>
<path d="M71.7289 75.0177L72.6183 73.555L71.6154 72.9496L70.726 74.4123L71.7289 75.0177Z" fill="#7C9D9C"/>
<path d="M76.2493 77.2191L77.1387 75.7563L76.1358 75.1509L75.2464 76.6136L76.2493 77.2191Z" fill="#7C9D9C"/>
</svg>
