<svg width="37" height="37" viewBox="0 0 37 37" fill="none" xmlns="http://www.w3.org/2000/svg">
<g clip-path="url(#clip0)">
<path d="M31.5792 5.41619C24.3534 -1.80741 12.6398 -1.80568 5.41619 5.42016C-1.80741 12.646 -1.80568 24.3595 5.42016 31.5831C12.646 38.8067 24.3595 38.805 31.5831 31.5792C35.0523 28.1089 37.0007 23.4026 36.9997 18.4957C36.9986 13.5896 35.0489 8.88479 31.5792 5.41619ZM28.0173 25.7699C28.0165 25.7707 28.0157 25.7716 28.0148 25.7724V25.7663L27.0774 26.6974C25.8652 27.925 24.0997 28.43 22.4216 28.0294C20.7309 27.5769 19.1237 26.8565 17.6609 25.8958C16.3019 25.0272 15.0425 24.0119 13.9054 22.8679C12.8593 21.8294 11.9194 20.689 11.0996 19.4639C10.2029 18.1456 9.4932 16.7096 8.99059 15.1965C8.41441 13.4191 8.89187 11.4687 10.2239 10.1584L11.3216 9.06076C11.6268 8.75421 12.1227 8.75312 12.4291 9.0583C12.4299 9.0591 12.4308 9.05989 12.4316 9.06076L15.8972 12.5264C16.2038 12.8316 16.2049 13.3275 15.8997 13.6339C15.8989 13.6347 15.8981 13.6355 15.8972 13.6364L13.8622 15.6714C13.2783 16.2489 13.2049 17.1667 13.6896 17.8298C14.4256 18.8399 15.2401 19.7904 16.1254 20.6726C17.1125 21.664 18.1856 22.5658 19.3321 23.3675C19.9945 23.8295 20.8927 23.7516 21.4657 23.1825L23.4329 21.1845C23.7381 20.8779 24.2339 20.8768 24.5404 21.182C24.5412 21.1828 24.542 21.1836 24.5429 21.1845L28.0147 24.6625C28.3214 24.9676 28.3224 25.4634 28.0173 25.7699Z" fill="#2D5F5D"/>
</g>
<defs>
<clipPath id="clip0">
<rect width="37" height="37" fill="white"/>
</clipPath>
</defs>
</svg>
