<svg width="41" height="41" viewBox="0 0 41 41" fill="none" xmlns="http://www.w3.org/2000/svg">
<path d="M21 0H20C8.95431 0 0 8.95431 0 20V21C0 32.0457 8.95431 41 20 41H21C32.0457 41 41 32.0457 41 21V20C41 8.95431 32.0457 0 21 0Z" fill="#15ACE5"/>
<path d="M35.0599 25.5115C34.745 23.9023 34.4073 22.2542 34.4073 20.6145C34.4073 13.3435 28.5129 7.44913 21.2419 7.44913C19.6022 7.44913 17.9541 7.11151 16.3449 6.79654C15.8715 6.70389 15.3824 6.65527 14.8818 6.65527C10.6849 6.65527 7.28265 10.0575 7.28265 14.2544C7.28265 14.7549 7.33127 15.2441 7.42393 15.7174C7.73892 17.3266 8.07651 18.9747 8.07651 20.6145C8.07651 27.8855 13.9709 33.7798 21.2419 33.7798C22.8816 33.7798 24.5297 34.1174 26.1389 34.4324C26.6123 34.5251 27.1014 34.5737 27.602 34.5737C31.7988 34.5737 35.2011 31.1715 35.2011 26.9746C35.2011 26.474 35.1525 25.9849 35.0599 25.5115ZM21.4921 29.6559C16.8139 29.6559 14.4748 27.9016 13.755 25.6974C13.0353 23.4933 14.6097 22.8635 15.1045 22.8185C15.5993 22.7736 16.6489 22.8935 16.9488 23.8082C17.2605 24.7588 18.2983 26.6421 20.5474 26.867C22.7965 27.0919 24.281 26.0573 24.7308 24.9777C25.1806 23.8981 24.3709 22.4137 20.9073 21.9189C17.4436 21.4241 13.845 19.8947 13.845 16.431C13.845 12.9673 17.8035 11.5729 21.582 11.5729C25.3606 11.5729 27.2762 13.7069 27.6997 14.5417C28.2244 15.5763 28.0445 17.3002 26.8 17.6005C25.4955 17.9154 24.8208 17.1957 23.8761 15.4414C22.8993 13.6272 19.4228 14.0919 18.2533 15.1265C17.0837 16.1611 17.3986 17.6455 22.2568 18.5902C27.1149 19.5348 28.9142 21.2891 28.9142 24.0331C28.9142 26.777 26.1702 29.6559 21.4921 29.6559Z" fill="white"/>
</svg>
