<svg width="16" height="15" viewBox="0 0 16 15" fill="none" xmlns="http://www.w3.org/2000/svg">
<path fill-rule="evenodd" clip-rule="evenodd" d="M3.52253 0H12.4776C14.4121 0 16 1.48805 16 3.30072V11.6918C16 13.512 14.4121 15 12.4776 15H3.52253C1.58005 15 0 13.512 0 11.6918V3.30072C0 1.48805 1.57999 0 3.52253 0Z" fill="url(#paint0_linear)"/>
<path d="M11.7282 4.00006C11.6964 4.00006 11.6633 4.00622 11.6304 4.01975L3.1757 7.50215C2.93678 7.60056 2.94305 7.96915 3.18518 8.05786L5.14538 8.77571L6.32747 11.3401C6.32779 11.3409 6.32806 11.3416 6.32838 11.3424L6.33165 11.3492L6.33256 11.3487C6.35389 11.396 6.39853 11.4266 6.44618 11.4266C6.47415 11.4266 6.50261 11.4165 6.52742 11.3937L7.63497 10.3759L6.39843 9.35866L6.49516 10.6945L5.60628 8.69966L10.3306 5.62368L6.39843 9.3586L9.45952 11.8767C9.56205 11.9609 9.67936 12 9.79458 12C10.0375 12 10.2711 11.8272 10.3367 11.5421L11.9916 4.36726C12.0364 4.17282 11.8963 4 11.7283 4L11.7282 4.00006Z" fill="white"/>
<defs>
<linearGradient id="paint0_linear" x1="7.99997" y1="0.962568" x2="7.99997" y2="13.6748" gradientUnits="userSpaceOnUse">
<stop stop-color="#00A4D2"/>
<stop offset="1" stop-color="#00A4D2"/>
</linearGradient>
</defs>
</svg>
