<svg width="15" height="15" viewBox="0 0 15 15" fill="none" xmlns="http://www.w3.org/2000/svg">
<path fill-rule="evenodd" clip-rule="evenodd" d="M3.30237 0H11.6978C13.5113 0 15 1.48805 15 3.30072V11.6918C15 13.512 13.5113 15 11.6978 15H3.30237C1.48129 15 0 13.512 0 11.6918V3.30072C0 1.48805 1.48124 0 3.30237 0Z" fill="url(#paint0_linear)"/>
<path d="M13.301 5.08827L13.2977 5.07534C13.0362 4.0181 11.8572 2.88363 10.7745 2.64761L10.7623 2.6451C9.01097 2.31101 7.23526 2.31101 5.48434 2.6451L5.47177 2.64761C4.38938 2.88363 3.21037 4.0181 2.94848 5.07534L2.94561 5.08827C2.6223 6.56474 2.6223 8.06204 2.94561 9.5385L2.94848 9.55143C3.1992 10.5635 4.29041 11.6459 5.33274 11.9436V13.1237C5.33274 13.5509 5.85328 13.7607 6.14929 13.4524L7.34501 12.2095C7.60434 12.224 7.86382 12.2321 8.1233 12.2321C9.00486 12.2321 9.88679 12.1488 10.7623 11.9817L10.7745 11.9792C11.8572 11.7432 13.0362 10.6087 13.2977 9.55147L13.301 9.53854C13.6243 8.06204 13.6243 6.56474 13.301 5.08827ZM12.3548 9.3244C12.1802 10.0141 11.2849 10.8716 10.5737 11.0301C9.64247 11.2071 8.70393 11.2828 7.76632 11.2568C7.74768 11.2563 7.72975 11.2636 7.71675 11.2769C7.58369 11.4135 6.84369 12.1731 6.84369 12.1731L5.91507 13.1262C5.84717 13.197 5.7279 13.1488 5.7279 13.0511V11.0961C5.7279 11.0638 5.70484 11.0363 5.67312 11.0301C5.67294 11.0301 5.67276 11.0301 5.67258 11.03C4.96129 10.8716 4.06643 10.0141 3.89148 9.32436C3.6005 7.9898 3.6005 6.63691 3.89148 5.30234C4.06643 4.61261 4.96129 3.75511 5.67258 3.59668C7.29885 3.28738 8.94775 3.28738 10.5737 3.59668C11.2853 3.75511 12.1802 4.61261 12.3548 5.30234C12.6461 6.63694 12.6461 7.98983 12.3548 9.3244Z" fill="white"/>
<path d="M9.67001 10.2292C9.56066 10.196 9.45645 10.1737 9.35967 10.1336C8.35682 9.7175 7.43387 9.18073 6.70278 8.3579C6.28704 7.88999 5.96164 7.36174 5.68657 6.80269C5.55613 6.53757 5.44621 6.26207 5.33416 5.98837C5.232 5.73877 5.38248 5.48091 5.54094 5.29285C5.68963 5.11636 5.88096 4.98129 6.08817 4.88174C6.24989 4.80404 6.40943 4.84883 6.52755 4.98592C6.78289 5.28229 7.01744 5.59382 7.20737 5.93736C7.32416 6.14866 7.29211 6.40695 7.08045 6.55076C7.02901 6.58571 6.98213 6.62674 6.93421 6.66622C6.89217 6.70081 6.85262 6.73576 6.82381 6.78261C6.77115 6.86832 6.76863 6.96941 6.80254 7.0626C7.06357 7.77992 7.50352 8.33771 8.22552 8.63814C8.34105 8.68621 8.45708 8.74218 8.59018 8.72666C8.81309 8.70061 8.88526 8.45612 9.04145 8.32837C9.19413 8.20354 9.38923 8.20188 9.55369 8.30595C9.71819 8.41006 9.87765 8.52182 10.0361 8.63476C10.1917 8.74562 10.3466 8.85408 10.4902 8.98046C10.6281 9.10199 10.6757 9.26142 10.598 9.42634C10.4557 9.72839 10.2487 9.97968 9.95011 10.1401C9.8658 10.1853 9.7651 10.2 9.67001 10.2292C9.7651 10.2 9.56066 10.196 9.67001 10.2292Z" fill="white"/>
<path d="M8.12321 4.5318C9.43497 4.56855 10.5124 5.43909 10.7432 6.73593C10.7826 6.9569 10.7966 7.18282 10.8141 7.40709C10.8214 7.50143 10.768 7.59106 10.6662 7.59228C10.5611 7.59354 10.5138 7.50556 10.5069 7.41126C10.4934 7.2246 10.484 7.03712 10.4583 6.852C10.3225 5.87484 9.54335 5.06641 8.57071 4.89294C8.42436 4.86682 8.27456 4.85996 8.1263 4.8444C8.03258 4.83456 7.90983 4.82889 7.88906 4.71238C7.87164 4.61471 7.95408 4.53693 8.04709 4.53194C8.07238 4.53054 8.09781 4.53169 8.12321 4.5318C8.09781 4.53169 9.43497 4.56855 8.12321 4.5318Z" fill="white"/>
<path d="M10.1179 7.11806C10.1158 7.13444 10.1146 7.17295 10.105 7.20923C10.0702 7.34093 9.87057 7.35742 9.82459 7.2245C9.81098 7.18505 9.80893 7.14019 9.80886 7.09772C9.80839 6.81989 9.748 6.54234 9.6079 6.30061C9.46388 6.05216 9.24385 5.8433 8.98577 5.71692C8.82972 5.64051 8.66095 5.59302 8.48992 5.56472C8.41516 5.55236 8.33961 5.54485 8.26449 5.5344C8.17346 5.52175 8.12486 5.46373 8.12917 5.37403C8.13319 5.28997 8.19462 5.22951 8.28623 5.23468C8.58727 5.25178 8.87804 5.31684 9.14567 5.45856C9.68991 5.74678 10.0008 6.20171 10.0915 6.80918C10.0956 6.8367 10.1022 6.86397 10.1043 6.89159C10.1095 6.95981 10.1127 7.0281 10.1179 7.11806C10.1127 7.0281 10.1158 7.13444 10.1179 7.11806Z" fill="white"/>
<path d="M9.29809 7.08643C9.18834 7.0884 9.1296 7.02766 9.11829 6.92703C9.11042 6.85687 9.10421 6.78578 9.08747 6.71753C9.05449 6.5831 8.98304 6.45852 8.86995 6.37614C8.81657 6.33724 8.75607 6.30889 8.6927 6.29061C8.6122 6.26737 8.5286 6.27376 8.44828 6.25407C8.36105 6.2327 8.31281 6.16207 8.32653 6.08024C8.339 6.00577 8.41145 5.94764 8.49282 5.95354C9.00139 5.99025 9.36487 6.25318 9.41674 6.85188C9.42041 6.89413 9.42472 6.93878 9.41534 6.97919C9.39928 7.04838 9.34806 7.08305 9.29809 7.08643C9.34806 7.08305 9.18834 7.0884 9.29809 7.08643Z" fill="white"/>
<defs>
<linearGradient id="paint0_linear" x1="7.49997" y1="0.962568" x2="7.49997" y2="13.6748" gradientUnits="userSpaceOnUse">
<stop stop-color="#7D3DAF"/>
<stop offset="1" stop-color="#7D3DAF"/>
</linearGradient>
</defs>
</svg>
