<svg width="15" height="15" viewBox="0 0 15 15" fill="none" xmlns="http://www.w3.org/2000/svg">
<path fill-rule="evenodd" clip-rule="evenodd" d="M3.30237 0H11.6978C13.5113 0 15 1.48805 15 3.30072V11.6918C15 13.512 13.5113 15 11.6978 15H3.30237C1.48129 15 0 13.512 0 11.6918V3.30072C0 1.48805 1.48124 0 3.30237 0Z" fill="url(#paint0_linear)"/>
<path fill-rule="evenodd" clip-rule="evenodd" d="M4.91863 4.74989C4.91863 4.80652 5.02836 4.79032 5.06842 4.80526C5.11572 4.82291 5.19631 4.84518 5.22249 4.86191C5.2379 4.87176 5.25032 4.87453 5.26898 4.8819C5.29481 4.8921 5.2934 4.89692 5.31421 4.90851C5.33444 4.91978 5.33828 4.92097 5.35525 4.93377C5.46099 5.01351 5.44893 5.00527 5.52201 5.11341C5.5679 5.1813 5.59427 5.28415 5.61408 5.36527C5.63631 5.45635 5.63484 5.51271 5.64931 5.60173L5.66295 5.7238C5.66432 5.74898 5.66894 5.75708 5.66868 5.78859C5.66829 5.838 5.67424 5.86731 5.67417 5.91855C5.67405 6.01051 5.67976 6.09248 5.67976 6.18908L5.67978 6.61653C5.67992 6.65405 5.67492 6.67269 5.67398 6.7029C5.67305 6.73321 5.67528 6.76492 5.67435 6.79523C5.67353 6.82204 5.66642 6.85813 5.66383 6.88244C5.66023 6.91618 5.66142 6.93468 5.65585 6.96672C5.65204 6.98865 5.64322 7.01733 5.64104 7.04437C5.62707 7.21749 5.61135 7.20803 5.60046 7.2865C5.58798 7.37645 5.57643 7.36354 5.55438 7.4259C5.54248 7.45954 5.51104 7.52271 5.48971 7.55275C5.46395 7.58904 5.42423 7.62206 5.38243 7.63841C5.28527 7.67641 5.23253 7.65986 5.13902 7.6208C5.11806 7.61204 5.10528 7.5962 5.08623 7.58528C5.041 7.55936 4.99953 7.52387 4.95856 7.49227C4.94846 7.48449 4.94297 7.48219 4.93447 7.47228C4.92572 7.46208 4.92576 7.45948 4.91453 7.44828C4.866 7.3999 4.80623 7.34121 4.76748 7.28745C4.72502 7.22856 4.6702 7.17748 4.63132 7.11609C4.59471 7.05828 4.53229 6.99113 4.50066 6.93401C4.46161 6.86351 4.39499 6.78916 4.36089 6.72285L4.02397 6.17748C4.01192 6.14821 4.00367 6.14165 3.98976 6.11857C3.97916 6.10096 3.97242 6.0777 3.95988 6.06089L3.9268 6.00631C3.9168 5.98009 3.90491 5.9753 3.89356 5.95187C3.88346 5.93105 3.88054 5.91055 3.86657 5.89139L3.83532 5.83503C3.81678 5.78889 3.72581 5.62563 3.716 5.59871C3.68972 5.5266 3.64296 5.45636 3.62984 5.4223C3.61251 5.37731 3.58999 5.34936 3.57343 5.3037L3.52143 5.17542C3.50986 5.15242 3.50254 5.14203 3.49353 5.11583C3.47744 5.06907 3.46276 5.0554 3.45157 5.02654C3.44785 5.01696 3.44522 5.00248 3.44192 4.99258C3.4318 4.96217 3.41965 4.96096 3.41092 4.93599C3.38778 4.86981 3.39442 4.89637 3.36823 4.8474L3.32484 4.78114C3.32065 4.77562 3.31944 4.77319 3.31569 4.76835C3.29024 4.73546 3.25321 4.70497 3.21767 4.68456C3.20113 4.67506 3.17791 4.66127 3.16104 4.65273C3.1218 4.63286 3.066 4.62489 3.02619 4.60996C2.96984 4.58882 2.92679 4.6035 2.85936 4.5981C2.80328 4.59362 2.74412 4.59298 2.67998 4.59298C2.51224 4.59298 1.40048 4.58626 1.33201 4.59377C1.31546 4.59559 1.3103 4.59959 1.28662 4.59863C1.26173 4.59763 1.26634 4.59375 1.24145 4.59274L1.09843 4.60602C1.07744 4.60976 0.953858 4.6358 0.935932 4.64911C0.883307 4.68819 0.869324 4.68422 0.828433 4.74538C0.779246 4.81895 0.818538 4.91862 0.838725 4.99333C0.844469 5.01458 0.848252 5.03589 0.858239 5.05562L0.997738 5.34819C1.01326 5.37035 1.01389 5.38146 1.02258 5.40533C1.03237 5.43222 1.04161 5.43815 1.05347 5.46204C1.06541 5.48609 1.06548 5.50037 1.07956 5.52338C1.09285 5.54508 1.09993 5.55232 1.10852 5.58196C1.1177 5.61363 1.12029 5.61059 1.13656 5.636C1.14968 5.65651 1.151 5.67654 1.16237 5.69762L1.22265 5.81248C1.2335 5.83082 1.23717 5.85139 1.24707 5.87003C1.25891 5.89231 1.26938 5.89907 1.27887 5.92586L1.45021 6.26881C1.45858 6.30569 1.4615 6.29558 1.48001 6.32115C1.49442 6.34105 1.4949 6.36054 1.50638 6.38223C1.51488 6.39827 1.51546 6.39465 1.52466 6.40784C1.54571 6.43805 1.54129 6.44925 1.57278 6.49116L1.79822 6.90626C1.80634 6.92082 1.80531 6.92312 1.81179 6.93643L1.98151 7.23765C1.98791 7.24828 1.99243 7.2524 1.99955 7.2635C2.01226 7.2833 2.01623 7.30289 2.02802 7.32254C2.04077 7.34377 2.05213 7.34773 2.06363 7.37468L2.18936 7.594C2.20271 7.62039 2.2022 7.6232 2.22249 7.64313C2.24791 7.66808 2.30253 7.76993 2.32166 7.80696C2.33228 7.82752 2.34365 7.83849 2.35514 7.85574C2.39506 7.91568 2.43021 7.98216 2.47202 8.04033L2.59123 8.22808C2.59902 8.24135 2.59892 8.23792 2.60803 8.24971C2.61544 8.25929 2.61861 8.26726 2.62398 8.27756C2.64453 8.31691 2.73415 8.42402 2.76583 8.48129L2.90512 8.68209C2.91216 8.69024 2.91827 8.69759 2.92474 8.70641C2.95517 8.74791 2.99279 8.78723 3.01968 8.83104C3.05431 8.88748 3.20306 9.07669 3.24193 9.12477L3.47889 9.40428C3.52115 9.44822 3.55288 9.50287 3.5966 9.54478L3.84911 9.80384C3.84991 9.80465 3.85101 9.80585 3.85179 9.80667C3.91504 9.87279 3.98739 9.93245 4.0554 9.99397C4.06472 10.0024 4.0684 10.0074 4.07831 10.0151L4.31573 10.2076C4.33275 10.2199 4.35384 10.2302 4.36825 10.2434L4.38802 10.2622C4.39637 10.2684 4.40661 10.2741 4.41495 10.2794L4.5174 10.3535C4.58547 10.3884 4.74297 10.5021 4.78612 10.5211C4.79658 10.5257 4.80413 10.5283 4.81317 10.5329L4.89866 10.5801C4.93164 10.6038 4.97701 10.6244 5.01373 10.642C5.03308 10.6512 5.04969 10.6588 5.06862 10.6701C5.0928 10.6845 5.10759 10.6853 5.13137 10.696C5.15238 10.7054 5.16367 10.7159 5.18958 10.7263L5.37032 10.8058C5.39172 10.8157 5.41433 10.8186 5.43688 10.828C5.46455 10.8397 5.46127 10.8453 5.49812 10.8554C5.52123 10.8618 5.54387 10.8645 5.56405 10.8728C5.58967 10.8834 5.59573 10.8917 5.62705 10.8985C5.67899 10.9098 5.71006 10.9294 5.76242 10.9408C5.85609 10.9611 5.82192 10.958 5.89593 10.9794C5.9206 10.9865 5.94285 10.9874 5.96534 10.9935C5.98777 10.9995 6.00994 11.0092 6.03285 11.0148C6.06388 11.0223 6.06674 11.0233 6.1041 11.027L6.25558 11.0537C6.28179 11.059 6.30517 11.0619 6.32948 11.0689C6.36379 11.0787 6.60222 11.1075 6.64226 11.1073L7.34197 11.1072C7.4572 11.1072 7.58552 11.12 7.67237 11.0966L7.79206 11.0446C7.81306 11.036 7.83898 11.0293 7.85593 11.0198C7.89927 10.9953 7.96035 10.9267 7.97448 10.8801C7.99039 10.8275 8.00942 10.8018 8.01406 10.7452L8.02468 10.5066C8.02446 10.4703 8.02955 10.4579 8.03034 10.4255C8.03156 10.3759 8.04598 10.325 8.05248 10.2792C8.0591 10.2325 8.06342 10.1668 8.07376 10.1266C8.07991 10.1027 8.08924 10.0912 8.09508 10.0661C8.10801 10.0104 8.10964 9.9815 8.13649 9.93296C8.14854 9.91117 8.14643 9.89055 8.15717 9.86639C8.16704 9.84419 8.17899 9.83576 8.18872 9.81573C8.20015 9.7922 8.20169 9.7773 8.21525 9.75481C8.26628 9.67018 8.3049 9.64083 8.38617 9.57918C8.42365 9.55074 8.4604 9.53637 8.50929 9.52506C8.61148 9.50142 8.7487 9.56121 8.82676 9.62311C8.84511 9.63766 8.86189 9.64555 8.88082 9.65742C8.8927 9.66487 8.89354 9.66768 8.90577 9.67659L9.29943 10.0589C9.30743 10.0677 9.31357 10.072 9.32184 10.0805C9.32932 10.0883 9.3327 10.0934 9.33913 10.1017C9.34623 10.1108 9.351 10.1161 9.35927 10.1255C9.42745 10.2025 9.49388 10.2801 9.56803 10.3511C9.62286 10.4036 9.67532 10.4713 9.73592 10.5297L9.95409 10.7408C9.97604 10.7623 9.98328 10.7614 10.0061 10.777C10.0366 10.7979 10.0777 10.8399 10.1537 10.8887L10.2616 10.952C10.2859 10.9647 10.2881 10.9735 10.3169 10.9851C10.3287 10.9899 10.3382 10.993 10.3482 10.9982L10.4459 11.0336C10.5118 11.0518 10.4585 11.0537 10.5725 11.0789C10.6006 11.0851 10.6112 11.0925 10.6404 11.0998C10.6756 11.1086 10.684 11.1041 10.7215 11.108C10.825 11.1188 10.9403 11.1072 11.0469 11.1072H12.4573C12.5382 11.1072 12.6299 11.1202 12.7073 11.0946L12.9043 11.0308C12.9492 11.0193 12.9323 11.0276 12.9665 11.0043C13.0295 10.9615 12.9985 11.0082 13.0858 10.9087C13.1656 10.8179 13.1568 10.748 13.1568 10.6365L13.1019 10.484L12.7971 10.0212L12.4335 9.61523C12.4225 9.60326 12.4109 9.58796 12.4014 9.576C12.3796 9.5488 12.3528 9.53105 12.331 9.50338L12.2384 9.41428C12.2376 9.41351 12.2364 9.41245 12.2355 9.4117C12.2303 9.40708 12.229 9.40638 12.2237 9.40152C12.21 9.38914 12.2005 9.37926 12.1872 9.36639C12.1624 9.34243 12.141 9.32442 12.1191 9.29699C12.0898 9.26031 12.01 9.19275 11.9746 9.16075C11.9494 9.13793 11.9228 9.11885 11.9008 9.09139C11.8638 9.04502 11.8164 9.01475 11.7714 8.97847L11.5325 8.76033C11.5172 8.74548 11.5066 8.74218 11.4932 8.72802L11.4413 8.67538C11.4066 8.64435 11.2581 8.4836 11.2424 8.4565C11.2265 8.42912 11.2128 8.42021 11.2022 8.38712C11.191 8.35208 11.1663 8.33412 11.1554 8.29708C11.1252 8.19404 11.1266 8.15214 11.1533 8.04494C11.1596 8.01968 11.1603 8.00487 11.1718 7.98167L11.2091 7.89864C11.216 7.88599 11.2202 7.88239 11.2266 7.87231L11.2864 7.76781C11.3281 7.70317 11.3808 7.64516 11.423 7.58062C11.4287 7.57183 11.433 7.56541 11.4386 7.55789L11.4956 7.48852C11.5086 7.47301 11.5161 7.45657 11.529 7.43967C11.5419 7.42281 11.5501 7.4098 11.5642 7.39249L11.7107 7.21492C11.7467 7.16918 11.7759 7.11641 11.8178 7.07498L12.0527 6.77721C12.0608 6.76802 12.0647 6.76046 12.0711 6.75175C12.0828 6.73588 12.0954 6.72339 12.1086 6.70689C12.1173 6.69608 12.1161 6.69489 12.124 6.68384C12.1627 6.62956 12.2105 6.57859 12.2491 6.52344C12.2624 6.50441 12.2716 6.49595 12.2849 6.47692L12.3366 6.40785C12.3449 6.39619 12.3496 6.39481 12.3575 6.38477C12.3712 6.36732 12.3723 6.35137 12.3887 6.33376L12.51 6.16974C12.5187 6.15865 12.5223 6.15614 12.5301 6.14584L12.8542 5.65305C12.8673 5.63178 12.8786 5.62542 12.8883 5.60483C12.8997 5.58081 12.9027 5.57226 12.9159 5.55039L13.026 5.3322C13.0376 5.2995 13.0533 5.2828 13.0763 5.21846C13.0936 5.17002 13.1099 5.15248 13.1192 5.09764C13.1239 5.07004 13.1275 5.06018 13.1377 5.0344C13.1658 4.96355 13.1568 4.89851 13.1568 4.82563C13.1568 4.81447 13.1297 4.78426 13.1226 4.76674C13.1059 4.72541 13.1141 4.73772 13.0798 4.71074C13.0513 4.68831 13.0187 4.67678 12.9889 4.65797C12.954 4.63596 12.9185 4.63289 12.8762 4.62626C12.8415 4.62083 12.8275 4.6141 12.7939 4.60845C12.7282 4.5974 12.6785 4.59297 12.6084 4.59297H10.8175C10.7881 4.59297 10.7755 4.59757 10.7556 4.59813C10.7345 4.59872 10.7237 4.59297 10.6943 4.59297C10.4378 4.59297 10.5318 4.61139 10.4327 4.63225C10.3909 4.64107 10.3901 4.64879 10.3415 4.69551C10.3358 4.70095 10.3247 4.71399 10.318 4.72148C10.3036 4.73758 10.2931 4.7619 10.2791 4.78131C10.2344 4.84358 10.2243 4.92552 10.1853 4.98819C10.1693 5.01389 10.169 5.03268 10.1581 5.05924C10.1462 5.08796 10.1345 5.09531 10.1257 5.12536C10.1143 5.16441 10.1137 5.16922 10.0957 5.19915C10.0817 5.22246 10.0773 5.24429 10.0683 5.27008L9.98796 5.44127C9.98151 5.4596 9.97878 5.45963 9.96775 5.47583C9.94755 5.5055 9.94511 5.54825 9.92314 5.57879C9.90826 5.59947 9.90422 5.62326 9.88932 5.64348C9.86466 5.67691 9.86112 5.71235 9.83915 5.74648L9.77371 5.87799C9.76019 5.90628 9.75315 5.91685 9.73915 5.94197L9.64954 6.10422C9.62898 6.14721 9.60841 6.19142 9.57896 6.23077C9.56516 6.24922 9.56939 6.24467 9.55987 6.26642C9.54646 6.29708 9.53535 6.30144 9.5181 6.32342L9.36465 6.57545C9.35655 6.58739 9.35179 6.59306 9.3444 6.60457L9.3031 6.66203C9.29535 6.67295 9.29251 6.6821 9.2852 6.69342C9.2387 6.76535 9.15747 6.86237 9.12161 6.93024C9.11623 6.9404 9.11092 6.95325 9.1048 6.96268C9.09644 6.97558 9.09002 6.97878 9.07924 6.99208L8.99186 7.10238C8.98406 7.11346 8.97827 7.12104 8.97068 7.1306L8.9272 7.18595C8.91782 7.19714 8.91131 7.205 8.90266 7.21633L8.73496 7.40048L8.54619 7.56427C8.49398 7.60509 8.396 7.65164 8.32541 7.64103C8.24282 7.62863 8.24218 7.60833 8.19182 7.56956C8.17037 7.55305 8.11514 7.48297 8.10644 7.45732C8.09292 7.41747 8.08021 7.41653 8.07193 7.39329C8.06239 7.36655 8.06068 7.33808 8.04898 7.31268C8.02642 7.2637 8.026 7.20539 8.01749 7.14293C8.01438 7.12004 8.01274 7.07603 8.00962 7.05315C7.99906 6.97561 7.99565 6.73082 8.00318 6.66599L8.01356 6.27565C8.01356 6.24313 8.01332 6.21057 8.01337 6.17807C8.01342 6.14214 8.01933 6.122 8.01917 6.08088C8.01865 5.9451 8.02505 5.82188 8.02474 5.6913L8.04154 5.02582C8.04154 4.97825 8.03306 4.94975 8.03034 4.90679L8.01518 4.78618C8.00993 4.7585 8.01043 4.75911 8.00004 4.7359C7.99045 4.7145 7.98551 4.70858 7.98035 4.6846C7.96797 4.62711 7.96206 4.6346 7.93403 4.59412C7.89661 4.54007 7.8873 4.53012 7.84239 4.48793L7.7552 4.43696L7.59733 4.38398C7.55163 4.37626 7.52229 4.38043 7.4798 4.36774C7.38549 4.3396 7.2126 4.31952 7.11268 4.31687C7.08976 4.31627 7.06993 4.31861 7.04748 4.31498C7.02554 4.31142 7.01368 4.30664 6.98957 4.30603C6.94389 4.30488 6.89536 4.30603 6.84942 4.30626C6.80019 4.3065 6.76814 4.30078 6.71514 4.30081C6.60379 4.30088 6.40998 4.2901 6.31542 4.30394C6.23243 4.31608 6.13976 4.29741 6.05798 4.30935C5.99991 4.31783 5.93596 4.31218 5.87721 4.32396C5.86079 4.32725 5.83822 4.32752 5.8139 4.32768C5.65192 4.32878 5.56558 4.36639 5.46876 4.37817C5.42338 4.38368 5.40119 4.38775 5.36264 4.40542C5.34301 4.41442 5.33556 4.4198 5.31447 4.42378C5.28443 4.42946 5.19262 4.46166 5.16955 4.47846C5.08597 4.53935 4.91863 4.63817 4.91863 4.74988L4.91863 4.74989Z" fill="white"/>
<defs>
<linearGradient id="paint0_linear" x1="7.49997" y1="0.962568" x2="7.49997" y2="13.6748" gradientUnits="userSpaceOnUse">
<stop stop-color="#5181B8"/>
<stop offset="1" stop-color="#5181B8"/>
</linearGradient>
</defs>
</svg>
