<svg width="15" height="15" viewBox="0 0 15 15" fill="none" xmlns="http://www.w3.org/2000/svg">
<path fill-rule="evenodd" clip-rule="evenodd" d="M11.4622 15H3.5378C1.58392 15 0 13.4161 0 11.4622V3.53764C0 1.58387 1.58392 0 3.5378 0H11.4622C13.4161 0 15 1.58387 15 3.53764V11.4622C15 13.4161 13.4161 15 11.4622 15Z" fill="#009E43"/>
<path fill-rule="evenodd" clip-rule="evenodd" d="M8.09026 2C5.37956 2 3.18154 4.18083 3.18154 6.87118C3.18154 7.79173 3.43914 8.65221 3.88611 9.38654L3 12L5.71771 11.1365C6.42113 11.5226 7.22989 11.7423 8.09033 11.7423C10.8022 11.7423 13 9.56134 13 6.87118C13 4.18083 10.8022 2 8.09033 2H8.09026ZM8.09026 10.9263C7.26067 10.9263 6.48745 10.6793 5.84233 10.2557L4.27173 10.7545L4.78223 9.24856C4.29311 8.58025 4.00412 7.75882 4.00412 6.87111C4.00412 4.63495 5.83742 2.81595 8.09026 2.81595C10.344 2.81595 12.1769 4.63488 12.1769 6.87111C12.1769 9.10687 10.344 10.9262 8.09026 10.9262V10.9263ZM10.3923 7.97808C10.2691 7.91112 9.66467 7.58754 9.55136 7.54193C9.43826 7.49598 9.35518 7.47227 9.26666 7.59369C9.17895 7.71477 8.92775 7.98578 8.85189 8.06612C8.77563 8.1466 8.70209 8.15396 8.57897 8.08714C8.45627 8.02018 8.05737 7.87376 7.59474 7.43254C7.23459 7.08929 6.99857 6.67287 6.93027 6.54557C6.86143 6.41834 6.92966 6.35375 6.99476 6.29408C7.05318 6.24003 7.12563 6.15314 7.19107 6.08293C7.2561 6.01293 7.27919 5.96185 7.32379 5.88043C7.3688 5.79922 7.35062 5.72577 7.32154 5.66239C7.2926 5.59915 7.06523 4.97793 6.97031 4.72509C6.87511 4.47231 6.76923 4.50981 6.69623 4.50704C6.62303 4.50461 6.53982 4.4911 6.45661 4.48772C6.37278 4.48488 6.23584 4.51083 6.11654 4.6309C5.99683 4.75103 5.66167 5.03982 5.63879 5.65171C5.6155 6.26334 6.04239 6.87125 6.10184 6.95645C6.16142 7.04186 6.91645 8.36802 8.17102 8.91322C9.42634 9.45877 9.43315 9.29248 9.66317 9.28012C9.89394 9.26809 10.4162 9.00647 10.5315 8.72045C10.6469 8.43403 10.6562 8.18518 10.627 8.13227C10.5975 8.0791 10.515 8.04484 10.3923 7.97815V7.97808Z" fill="#FEFEFE"/>
</svg>
