<svg width="41" height="41" viewBox="0 0 41 41" fill="none" xmlns="http://www.w3.org/2000/svg">
<path d="M21 0H20C8.95431 0 0 8.95431 0 20V21C0 32.0457 8.95431 41 20 41H21C32.0457 41 41 32.0457 41 21V20C41 8.95431 32.0457 0 21 0Z" fill="#1BD741"/>
<path d="M11.9238 33.3703C9.36717 34.0284 7.05906 31.6677 7.77454 29.1266C8.02742 28.2284 7.88373 27.2744 7.49511 26.4261C6.64308 24.5663 6.19899 22.5384 6.19899 20.466C6.19899 12.5702 12.6227 6.14648 20.5185 6.14648C28.4143 6.14648 34.8379 12.5702 34.8379 20.466C34.8379 28.3618 28.4143 34.7855 20.5185 34.7855C18.5376 34.7855 16.5898 34.3772 14.7936 33.594C13.9552 33.2284 13.0236 33.0872 12.1379 33.3152L11.9238 33.3703ZM13.3966 30.4828C13.7146 30.401 14.0521 30.4514 14.3323 30.6225C16.1905 31.7568 18.3297 32.3564 20.5185 32.3564C27.0749 32.3564 32.4089 27.0224 32.4089 20.466C32.4089 13.9096 27.0749 8.57555 20.5185 8.57555C13.9621 8.57555 8.62806 13.9096 8.62806 20.466C8.62806 22.7505 9.27734 24.9689 10.5055 26.8815C10.6933 27.1738 10.7468 27.5325 10.6527 27.867L10.5629 28.1857C10.1553 29.6336 11.4704 30.9787 12.9271 30.6037L13.3966 30.4828Z" fill="white"/>
<path d="M16.4959 13.8014L15.5668 13.7507C15.2749 13.7348 14.9887 13.8323 14.7681 14.0239C14.3176 14.4151 13.5973 15.1714 13.3761 16.1568C13.0462 17.6262 13.5561 19.4255 14.8756 21.2248C16.1951 23.0242 18.6541 25.903 23.0024 27.1326C24.4036 27.5288 25.5059 27.2617 26.3563 26.7177C27.0299 26.2868 27.4942 25.5953 27.6615 24.8135L27.8099 24.1206C27.857 23.9003 27.7452 23.6769 27.5406 23.5826L24.4004 22.1351C24.1965 22.0412 23.9548 22.1006 23.8177 22.2783L22.5849 23.8764C22.4918 23.9971 22.3324 24.045 22.1884 23.9944C21.3442 23.6977 18.5162 22.5133 16.9645 19.5243C16.8972 19.3947 16.9139 19.2373 17.0094 19.1268L18.1876 17.7638C18.3079 17.6246 18.3383 17.4289 18.266 17.2598L16.9124 14.0929C16.8403 13.9243 16.6788 13.8113 16.4959 13.8014Z" fill="white"/>
</svg>
